<?xml version="1.0" encoding="UTF-8"?>
<svg id="Capa_1" data-name="Capa 1" xmlns="http://www.w3.org/2000/svg" viewBox="0 0 740 233">
  <defs>
    <style>
      .cls-1 {
        fill: #fff;
        stroke: #6d28d9;
        stroke-miterlimit: 10;
        stroke-width: 10px;
      }

      .cls-2 {
        fill: #6d28d9;
      }
    </style>
  </defs>
  <g>
    <path class="cls-2" d="M43.66,181.31C2.78,140.43,2.78,74.16,43.66,33.28,84.54-7.6,76.42,66.79,117.3,107.67c40.88,40.88,115.27,32.76,74.39,73.64-40.88,40.88-107.15,40.88-148.03,0Z"/>
    <circle class="cls-1" cx="164.91" cy="59.82" r="38.79"/>
  </g>
  <g>
    <path class="cls-2" d="M325.84,78.88c-1.41,0-2.58,.49-3.51,1.46-.93,.97-1.39,2.17-1.39,3.58v68.64l-54.19-71.69c-.44-.71-1.08-1.21-1.92-1.52-.84-.31-1.66-.46-2.45-.46-1.41,0-2.65,.49-3.71,1.46-1.06,.97-1.59,2.3-1.59,3.97v82.4c0,1.41,.44,2.58,1.32,3.51,.88,.93,2.07,1.39,3.58,1.39s2.72-.46,3.64-1.39,1.39-2.1,1.39-3.51V98.42l54.05,71.48c.44,.53,1.06,.95,1.85,1.26,.8,.31,1.54,.46,2.25,.46,1.59,0,2.91-.51,3.97-1.52,1.06-1.01,1.59-2.36,1.59-4.04V83.92c0-1.41-.44-2.6-1.32-3.58-.88-.97-2.08-1.46-3.58-1.46Z"/>
    <path class="cls-2" d="M424.88,91.21c-4.02-4.33-8.74-7.68-14.18-10.07-5.43-2.39-11.42-3.58-17.95-3.58s-12.39,1.19-17.82,3.58c-5.43,2.39-10.16,5.74-14.18,10.07-4.02,4.33-7.11,9.39-9.27,15.17-2.16,5.79-3.25,12.08-3.25,18.88s1.08,13.09,3.25,18.88c2.16,5.79,5.25,10.84,9.27,15.17,4.02,4.33,8.74,7.68,14.18,10.07,5.43,2.39,11.37,3.58,17.82,3.58s12.52-1.19,17.95-3.58c5.43-2.39,10.16-5.74,14.18-10.07,4.02-4.33,7.13-9.38,9.34-15.17,2.21-5.78,3.31-12.08,3.31-18.88s-1.11-13.09-3.31-18.88c-2.21-5.78-5.32-10.84-9.34-15.17Zm-3.11,53.19c-2.83,5.61-6.74,10-11.73,13.18-4.99,3.18-10.75,4.77-17.29,4.77s-12.17-1.59-17.16-4.77c-4.99-3.18-8.9-7.57-11.73-13.18-2.83-5.61-4.24-11.99-4.24-19.14s1.41-13.65,4.24-19.21c2.83-5.56,6.73-9.94,11.73-13.12,4.99-3.18,10.71-4.77,17.16-4.77s12.3,1.59,17.29,4.77c4.99,3.18,8.9,7.57,11.73,13.18,2.83,5.61,4.24,11.99,4.24,19.14s-1.41,13.54-4.24,19.14Z"/>
    <path class="cls-2" d="M535.56,78.75c-1.77,0-3.27,.84-4.5,2.52l-33.15,49.35-32.7-49.35c-.53-.79-1.26-1.41-2.19-1.85-.93-.44-1.79-.66-2.58-.66-1.59,0-2.91,.55-3.97,1.66-1.06,1.1-1.59,2.36-1.59,3.78v82.01c0,1.5,.48,2.78,1.46,3.84,.97,1.06,2.21,1.59,3.71,1.59s2.74-.53,3.71-1.59c.97-1.06,1.46-2.34,1.46-3.84V99.32l28.09,43.16c.44,.71,1.06,1.28,1.85,1.72,.8,.44,1.59,.62,2.39,.53,.88,.09,1.7-.09,2.45-.53,.75-.44,1.39-1.01,1.92-1.72l27.95-42.52v66.24c0,1.5,.51,2.78,1.52,3.84,1.01,1.06,2.36,1.59,4.04,1.59,1.59,0,2.91-.53,3.97-1.59s1.59-2.34,1.59-3.84V84.18c0-1.5-.55-2.76-1.66-3.78-1.11-1.01-2.36-1.57-3.78-1.66Z"/>
    <path class="cls-2" d="M600.35,82.06c-.35-1.15-.99-2.03-1.92-2.65-.93-.62-1.97-.93-3.11-.93-1.15-.09-2.19,.18-3.11,.8-.93,.62-1.66,1.55-2.19,2.78l-34.31,83.33c-.18,.71-.26,1.37-.26,1.99,.09,1.24,.53,2.32,1.32,3.25,.8,.93,2.03,1.39,3.71,1.39,.97,0,1.9-.33,2.78-.99,.88-.66,1.5-1.52,1.85-2.58l8.87-21.59h41.82l8.93,21.46c.44,1.15,1.1,2.05,1.99,2.72,.88,.66,1.9,.99,3.05,.99,1.32,0,2.52-.48,3.58-1.46,1.06-.97,1.59-2.25,1.59-3.84,0-.71-.13-1.41-.4-2.12l-34.18-82.54Zm-22.12,54.45l16.53-40.23,16.74,40.23h-33.27Z"/>
    <path class="cls-2" d="M724.55,107.57c-1.64-5.61-4.09-10.58-7.35-14.9-3.27-4.33-7.35-7.7-12.25-10.14-4.9-2.43-10.62-3.64-17.16-3.64h-32.99c-1.5,0-2.78,.53-3.84,1.59s-1.59,2.34-1.59,3.84v81.88c0,1.5,.53,2.78,1.59,3.84s2.34,1.59,3.84,1.59h32.99c8.74,0,16.01-2.07,21.79-6.23,5.78-4.15,10.13-9.74,13.05-16.76,2.91-7.02,4.37-14.82,4.37-23.38,0-6.18-.82-12.08-2.45-17.69Zm-12.06,35.71c-1.99,5.48-5.1,9.85-9.34,13.12-4.24,3.27-9.8,4.9-16.69,4.9h-25.97V89.22h25.97c5.12,0,9.52,.97,13.18,2.91,3.66,1.94,6.67,4.59,9.01,7.95,2.34,3.36,4.06,7.2,5.17,11.53,1.1,4.33,1.66,8.88,1.66,13.65,0,6.54-.99,12.54-2.98,18.02Z"/>
  </g>
</svg>