<?xml version="1.0" encoding="UTF-8"?>
<svg id="Capa_1" data-name="Capa 1" xmlns="http://www.w3.org/2000/svg" viewBox="0 0 804 233">
  <defs>
    <style>
      .cls-1 {
        fill: #fff;
        stroke: #6d28d9;
        stroke-miterlimit: 10;
        stroke-width: 10px;
      }

      .cls-2 {
        fill: #6d28d9;
      }
    </style>
  </defs>
  <g>
    <path class="cls-2" d="M208.14,169.87c-27.76-27.76-27.76-72.77,0-100.52,27.76-27.76,22.25,22.76,50.01,50.52s78.28,22.25,50.52,50.01c-27.76,27.76-72.77,27.76-100.52,0Z"/>
    <circle class="cls-1" cx="290.48" cy="87.37" r="26.34"/>
  </g>
  <g>
    <path class="cls-2" d="M151.67,42.96c-2.23,0-4.07,.77-5.53,2.29-1.46,1.53-2.19,3.41-2.19,5.63v108.08L58.63,46.09c-.7-1.11-1.7-1.91-3.02-2.4-1.32-.49-2.61-.73-3.86-.73-2.23,0-4.17,.77-5.84,2.29-1.67,1.53-2.5,3.62-2.5,6.26V181.27c0,2.23,.69,4.07,2.09,5.53,1.39,1.46,3.26,2.19,5.63,2.19s4.28-.73,5.74-2.19,2.19-3.3,2.19-5.53V73.72l85.11,112.55c.69,.84,1.67,1.5,2.92,1.98,1.25,.49,2.43,.73,3.55,.73,2.5,0,4.59-.8,6.26-2.4,1.67-1.6,2.5-3.72,2.5-6.36V50.89c0-2.22-.7-4.1-2.09-5.63-1.39-1.53-3.27-2.29-5.63-2.29Z"/>
    <path class="cls-2" d="M481.89,42.75c-2.78,0-5.15,1.32-7.09,3.96l-52.2,77.71-51.48-77.71c-.83-1.25-1.98-2.22-3.44-2.92-1.46-.69-2.82-1.04-4.07-1.04-2.5,0-4.59,.87-6.26,2.61-1.67,1.74-2.5,3.72-2.5,5.95V180.43c0,2.37,.76,4.38,2.29,6.05,1.53,1.67,3.48,2.5,5.84,2.5s4.31-.83,5.84-2.5c1.53-1.67,2.29-3.68,2.29-6.05V75.14l44.22,67.95c.69,1.12,1.67,2.02,2.92,2.71,1.25,.7,2.5,.97,3.76,.83,1.39,.14,2.68-.14,3.86-.83,1.18-.69,2.19-1.6,3.03-2.71l44.01-66.95v104.3c0,2.37,.8,4.38,2.4,6.05,1.6,1.67,3.72,2.5,6.36,2.5,2.5,0,4.59-.83,6.26-2.5s2.5-3.68,2.5-6.05V51.31c0-2.36-.87-4.35-2.61-5.95-1.74-1.6-3.72-2.47-5.95-2.61Z"/>
    <path class="cls-2" d="M583.89,47.97c-.56-1.81-1.57-3.2-3.03-4.17-1.46-.97-3.1-1.46-4.9-1.46-1.81-.14-3.44,.28-4.9,1.25-1.46,.97-2.61,2.43-3.44,4.38l-54.03,131.21c-.28,1.12-.42,2.16-.42,3.13,.14,1.95,.83,3.65,2.09,5.11,1.25,1.46,3.2,2.19,5.84,2.19,1.53,0,2.99-.52,4.38-1.57,1.39-1.04,2.36-2.4,2.92-4.07l13.97-34h65.84l14.06,33.79c.69,1.81,1.74,3.23,3.13,4.28,1.39,1.04,2.99,1.57,4.8,1.57,2.09,0,3.96-.76,5.63-2.3,1.67-1.53,2.5-3.55,2.5-6.05,0-1.11-.21-2.22-.63-3.34l-53.82-129.96Zm-34.84,85.74l26.03-63.35,26.36,63.35h-52.39Z"/>
    <path class="cls-2" d="M779.46,88.12c-2.58-8.83-6.43-16.65-11.58-23.47-5.15-6.81-11.58-12.13-19.3-15.96-7.72-3.82-16.72-5.74-27.01-5.74h-51.94c-2.37,0-4.38,.83-6.05,2.5-1.67,1.67-2.5,3.69-2.5,6.05V180.43c0,2.37,.83,4.38,2.5,6.05,1.67,1.67,3.68,2.5,6.05,2.5h51.94c13.77,0,25.21-3.27,34.32-9.8,9.11-6.53,15.96-15.33,20.55-26.39,4.59-11.06,6.88-23.33,6.88-36.82,0-9.73-1.29-19.02-3.86-27.85Zm-18.98,56.22c-3.13,8.62-8.03,15.51-14.71,20.65-6.68,5.15-15.44,7.72-26.28,7.72h-40.89V59.23h40.89c8.06,0,14.98,1.53,20.76,4.59,5.77,3.06,10.5,7.23,14.19,12.52,3.68,5.29,6.39,11.34,8.14,18.15,1.74,6.81,2.61,13.98,2.61,21.49,0,10.29-1.56,19.75-4.69,28.37Z"/>
  </g>
</svg>