<?xml version="1.0" encoding="UTF-8"?>
<svg id="Capa_2" data-name="Capa 2" xmlns="http://www.w3.org/2000/svg" viewBox="0 0 236.25 64.94">
  <defs>
    <style>
      .cls-1 {
        fill: none;
        stroke: #6d28d9;
        stroke-linecap: round;
        stroke-linejoin: round;
        stroke-width: 11.25px;
      }
    </style>
  </defs>
  <g id="_Ñëîé_1" data-name="Ñëîé 1">
    <g id="_4stars" data-name="4stars">
      <polygon class="cls-1" points="33.75 5.62 42.44 23.3 61.88 26.13 47.81 39.89 51.13 59.32 33.75 50.15 16.37 59.32 19.69 39.89 5.62 26.13 25.06 23.3 33.75 5.62"/>
      <polygon class="cls-1" points="90 5.62 98.69 23.3 118.12 26.13 104.06 39.89 107.38 59.32 90 50.15 72.62 59.32 75.94 39.89 61.88 26.13 81.31 23.3 90 5.62"/>
      <polygon class="cls-1" points="146.25 5.62 154.94 23.3 174.38 26.13 160.31 39.89 163.63 59.32 146.25 50.15 128.87 59.32 132.19 39.89 118.12 26.13 137.56 23.3 146.25 5.62"/>
      <polygon class="cls-1" points="202.5 5.62 211.19 23.3 230.62 26.13 216.56 39.89 219.88 59.32 202.5 50.15 185.12 59.32 188.44 39.89 174.38 26.13 193.81 23.3 202.5 5.62"/>
    </g>
  </g>
</svg>