<?xml version="1.0" encoding="UTF-8"?>
<svg id="Capa_2" data-name="Capa 2" xmlns="http://www.w3.org/2000/svg" viewBox="0 0 236.25 176.25">
  <defs>
    <style>
      .cls-1 {
        fill: none;
        stroke: #6d28d9;
        stroke-linecap: round;
        stroke-linejoin: round;
        stroke-width: 11.25px;
      }
    </style>
  </defs>
  <g id="_Ñëîé_1" data-name="Ñëîé 1">
    <g id="airConditioner">
      <path class="cls-1" d="M200.62,110.62H35.62c-16.58,0-30-13.42-30-30V20.62c0-8.29,6.71-15,15-15H215.62c8.29,0,15,6.71,15,15v60c0,16.58-13.42,30-30,30Z"/>
      <polyline class="cls-1" points="200.62 110.62 200.62 80.62 35.62 80.62 35.62 110.62"/>
      <line class="cls-1" x1="110.62" y1="50.62" x2="125.62" y2="50.62"/>
      <line class="cls-1" x1="118.12" y1="140.62" x2="118.12" y2="170.62"/>
      <path class="cls-1" d="M58.12,140.62c0,16.58-13.42,30-30,30"/>
      <path class="cls-1" d="M178.12,140.62c0,16.58,13.42,30,30,30"/>
      <path class="cls-1" d="M88.12,140.62c0,16.58-1.32,23.16-7.5,30"/>
      <path class="cls-1" d="M148.12,140.62c0,16.58,1.32,23.16,7.5,30"/>
    </g>
  </g>
</svg>