<?xml version="1.0" encoding="UTF-8"?>
<svg id="Capa_2" data-name="Capa 2" xmlns="http://www.w3.org/2000/svg" viewBox="0 0 236.25 176.25">
  <defs>
    <style>
      .cls-1 {
        fill: none;
        stroke: #6d28d9;
        stroke-linecap: round;
        stroke-linejoin: round;
        stroke-width: 11.25px;
      }
    </style>
  </defs>
  <g id="_Ñëîé_1" data-name="Ñëîé 1">
    <g id="assist">
      <circle class="cls-1" cx="163.12" cy="28.12" r="22.5"/>
      <path class="cls-1" d="M140.62,155.62c0,8.29,6.71,15,15,15h15c8.29,0,15-6.71,15-15v-45c8.29,0,15-6.71,15-15v-30c0-8.29-6.71-15-15-15h-45c-8.29,0-15,6.71-15,15v30c0,8.29,6.71,15,15,15v45Z"/>
      <circle class="cls-1" cx="58.12" cy="28.12" r="22.5"/>
      <path class="cls-1" d="M95.62,80.62v-15c0-8.29-6.71-15-15-15H35.62c-8.29,0-15,6.71-15,15v15"/>
      <line class="cls-1" x1="230.62" y1="170.62" x2="230.62" y2="80.62"/>
      <line class="cls-1" x1="200.62" y1="80.62" x2="230.62" y2="80.62"/>
      <line class="cls-1" x1="125.62" y1="80.62" x2="5.62" y2="80.62"/>
      <line class="cls-1" x1="5.62" y1="170.62" x2="5.62" y2="80.62"/>
    </g>
  </g>
</svg>