<?xml version="1.0" encoding="UTF-8"?>
<svg id="Capa_2" data-name="Capa 2" xmlns="http://www.w3.org/2000/svg" viewBox="0 0 236.25 236.25">
  <defs>
    <style>
      .cls-1 {
        fill: none;
        stroke: #6d28d9;
        stroke-linecap: round;
        stroke-linejoin: round;
        stroke-width: 11.25px;
      }
    </style>
  </defs>
  <g id="_Ñëîé_1" data-name="Ñëîé 1">
    <g id="beach">
      <path class="cls-1" d="M118.12,75.7h90c0-16.58-20.13-30-45-30s-45,13.42-45,30Z"/>
      <path class="cls-1" d="M118.12,75.7c0-16.58-20.13-30-45-30s-45,13.42-45,30h50.82"/>
      <path class="cls-1" d="M145.82,48L181.76,12.06c-11.73-11.73-35.45-6.98-53.03,10.61-11.75,11.75-17.77,26.24-16.97,38.05"/>
      <path class="cls-1" d="M54.49,139.34l63.64-63.64c-11.73-11.73-35.45-6.98-53.03,10.61-17.59,17.59-22.33,41.31-10.61,53.03Z"/>
      <path class="cls-1" d="M125.62,75.7c37.5,19.93,52.5,72.02,52.5,154.93h-30c0-77.73-11.37-132.7-33.2-151.63"/>
      <path class="cls-1" d="M118.12,215.63c-18.75,0-18.75-15-37.5-15s-18.75,15-37.5,15-18.75-15-37.5-15"/>
      <path class="cls-1" d="M118.12,215.63c15.59,0,18.22-10.36,29.43-13.86"/>
      <path class="cls-1" d="M193.12,215.63c-7.13,0-11.55-2.17-15.31-4.85"/>
      <path class="cls-1" d="M193.12,215.63c18.75,0,18.75-15,37.5-15"/>
      <path class="cls-1" d="M118.12,185.63c-18.75,0-18.75-15-37.5-15s-18.75,15-37.5,15-18.75-15-37.5-15"/>
      <path class="cls-1" d="M118.12,185.63c14.06,0,17.58-8.44,26.37-12.66"/>
      <path class="cls-1" d="M193.12,185.63c-8.44,0-13.08-3.04-17.34-6.38"/>
      <path class="cls-1" d="M193.12,185.63c18.75,0,18.75-15,37.5-15"/>
    </g>
  </g>
</svg>