<?xml version="1.0" encoding="UTF-8"?>
<svg id="Capa_2" data-name="Capa 2" xmlns="http://www.w3.org/2000/svg" viewBox="0 0 236.25 176.25">
  <defs>
    <style>
      .cls-1 {
        fill: none;
        stroke: #6d28d9;
        stroke-linecap: round;
        stroke-linejoin: round;
        stroke-width: 11.25px;
      }
    </style>
  </defs>
  <g id="_Ñëîé_1" data-name="Ñëîé 1">
    <g id="binoculars">
      <circle class="cls-1" cx="54.38" cy="121.88" r="48.75"/>
      <circle class="cls-1" cx="181.88" cy="121.88" r="48.75"/>
      <circle class="cls-1" cx="54.38" cy="121.88" r="26.25"/>
      <circle class="cls-1" cx="181.88" cy="121.88" r="26.25"/>
      <path class="cls-1" d="M139.76,97.31c-4.08,5.58-9.68,9.56-21.64,9.56s-17.56-3.98-21.64-9.56"/>
      <path class="cls-1" d="M96.49,146.44c4.08-5.58,9.68-9.56,21.64-9.56s17.56,3.98,21.64,9.56"/>
      <path class="cls-1" d="M19.9,87.4L68.48,17.15c3.85-6.88,11.21-11.52,19.65-11.52,12.43,0,22.5,10.07,22.5,22.5h15c0-12.43,10.07-22.5,22.5-22.5,8.32,0,15.58,4.52,19.48,11.23l48.74,70.55"/>
    </g>
  </g>
</svg>