<?xml version="1.0" encoding="UTF-8"?>
<svg id="Capa_2" data-name="Capa 2" xmlns="http://www.w3.org/2000/svg" viewBox="0 0 236.25 236.25">
  <defs>
    <style>
      .cls-1 {
        fill: none;
        stroke: #6d28d9;
        stroke-linecap: round;
        stroke-linejoin: round;
        stroke-width: 11.25px;
      }
    </style>
  </defs>
  <g id="_Ñëîé_1" data-name="Ñëîé 1">
    <g id="calendarEndOfMonth">
      <line class="cls-1" x1="5.62" y1="80.62" x2="230.62" y2="80.62"/>
      <line class="cls-1" x1="118.12" y1="50.62" x2="118.12" y2="5.62"/>
      <line class="cls-1" x1="80.62" y1="50.62" x2="80.62" y2="5.62"/>
      <line class="cls-1" x1="155.62" y1="50.62" x2="155.62" y2="5.62"/>
      <line class="cls-1" x1="43.12" y1="50.62" x2="43.12" y2="5.62"/>
      <line class="cls-1" x1="193.12" y1="50.62" x2="193.12" y2="5.62"/>
      <path class="cls-1" d="M230.62,215.62V28.12H5.62V215.62c0,8.29,6.71,15,15,15H215.62c8.29,0,15-6.71,15-15Z"/>
      <line class="cls-1" x1="163.12" y1="170.62" x2="163.12" y2="200.62"/>
      <line class="cls-1" x1="193.12" y1="170.62" x2="193.12" y2="200.62"/>
      <line class="cls-1" x1="163.12" y1="170.62" x2="193.12" y2="170.62"/>
      <line class="cls-1" x1="193.12" y1="200.62" x2="163.12" y2="200.62"/>
      <line class="cls-1" x1="118.05" y1="125.62" x2="118.2" y2="125.62"/>
      <line class="cls-1" x1="178.05" y1="125.62" x2="178.2" y2="125.62"/>
      <line class="cls-1" x1="118.05" y1="185.62" x2="118.2" y2="185.62"/>
      <line class="cls-1" x1="58.05" y1="185.62" x2="58.2" y2="185.62"/>
      <line class="cls-1" x1="58.05" y1="125.62" x2="58.2" y2="125.62"/>
    </g>
  </g>
</svg>