<?xml version="1.0" encoding="UTF-8"?>
<svg id="Capa_2" data-name="Capa 2" xmlns="http://www.w3.org/2000/svg" viewBox="0 0 236.25 206.25">
  <defs>
    <style>
      .cls-1 {
        fill: none;
        stroke: #6d28d9;
        stroke-linecap: round;
        stroke-linejoin: round;
        stroke-width: 11.25px;
      }
    </style>
  </defs>
  <g id="_Ñëîé_1" data-name="Ñëîé 1">
    <g id="car">
      <path class="cls-1" d="M170.62,170.62c0-16.58-13.42-30-30-30h-45c-16.58,0-30,13.42-30,30"/>
      <path class="cls-1" d="M200.62,65.62c0,16.58-36.9,15-82.5,15s-82.5,1.58-82.5-15"/>
      <path class="cls-1" d="M5.62,140.62H43.12c4.15,0,7.5-3.35,7.5-7.5,0-16.58-13.42-22.5-30-22.5l-10.27-.06"/>
      <path class="cls-1" d="M230.62,140.62h-37.5c-4.15,0-7.5-3.35-7.5-7.5,0-16.58,13.42-22.5,30-22.5h10.3"/>
      <path class="cls-1" d="M35.62,65.62H13.12c-4.15,0-7.5,3.35-7.5,7.5v7.5c0,8.29,6.71,15,15,15v.75c-15,15-15,29.25-15,44.25v52.5c0,4.15,3.35,7.5,7.5,7.5h30c4.15,0,7.5-3.35,7.5-7.5v-22.5H185.62v22.5c0,4.15,3.35,7.5,7.5,7.5h30c4.15,0,7.5-3.35,7.5-7.5v-52.5c0-15,0-29.25-15-44.25v-.75c8.29,0,15-6.71,15-15v-7.5c0-4.15-3.35-7.5-7.5-7.5h-22.5"/>
      <path class="cls-1" d="M200.62,65.62l-15-45c-2.81-7.5-13.42-15-30-15H80.62c-16.58,0-27.19,7.5-30,15l-15,45"/>
    </g>
  </g>
</svg>