<?xml version="1.0" encoding="UTF-8"?>
<svg id="Capa_2" data-name="Capa 2" xmlns="http://www.w3.org/2000/svg" viewBox="0 0 236.25 236.25">
  <defs>
    <style>
      .cls-1 {
        fill: none;
        stroke: #6d28d9;
        stroke-linecap: round;
        stroke-linejoin: round;
        stroke-width: 11.25px;
      }
    </style>
  </defs>
  <g id="_Ñëîé_1" data-name="Ñëîé 1">
    <g id="chash_spin">
      <path class="cls-1" d="M118.12,230.62c-62.13,0-112.5-50.37-112.5-112.5,0-25.02,8.17-48.13,21.98-66.81C48.09,23.6,81.01,5.62,118.12,5.62c62.13,0,112.5,50.37,112.5,112.5"/>
      <path class="cls-1" d="M213.02,182.33l-15.34,15.34c-20.36,20.36-48.48,32.95-79.55,32.95"/>
      <path class="cls-1" d="M84.38,140.62c0,12.44,10.06,22.5,22.5,22.5h22.5c12.44,0,22.5-10.06,22.5-22.5s-10.06-22.5-22.5-22.5h-22.5c-12.44,0-22.5-10.06-22.5-22.5s10.06-22.5,22.5-22.5h22.5c12.44,0,22.5,10.06,22.5,22.5"/>
      <line class="cls-1" x1="118.12" y1="73.12" x2="118.12" y2="58.12"/>
      <line class="cls-1" x1="118.12" y1="178.12" x2="118.12" y2="163.12"/>
      <polyline class="cls-1" points="213.02 219.76 213.02 182.33 213.02 182.26 175.51 182.26"/>
    </g>
  </g>
</svg>