<?xml version="1.0" encoding="UTF-8"?>
<svg id="Capa_2" data-name="Capa 2" xmlns="http://www.w3.org/2000/svg" viewBox="0 0 236.32 236.25">
  <defs>
    <style>
      .cls-1 {
        fill: none;
        stroke: #6d28d9;
        stroke-linecap: round;
        stroke-linejoin: round;
        stroke-width: 11.25px;
      }
    </style>
  </defs>
  <g id="_Ñëîé_1" data-name="Ñëîé 1">
    <g id="cleaningSpray">
      <path class="cls-1" d="M43.2,73.12c15-9.86,30-20.92,30-37.5,8.29,0,15,6.71,15,15v15"/>
      <line class="cls-1" x1="65.7" y1="5.62" x2="65.7" y2="35.62"/>
      <path class="cls-1" d="M110.69,230.62H43.2c-8.29,0-15-6.71-15-15v-60c0-16.58,45-45,45-60v-15c0-8.29,6.71-15,15-15h30c8.29,0,15,6.71,15,15v60"/>
      <path class="cls-1" d="M118.2,65.62v-15c0-8.29,6.71-15,15-15v-15c0-8.29-6.71-15-15-15H50.7c-4.15,0-7.5,3.35-7.5,7.5v15c0,4.15,3.35,7.5,7.5,7.5h22.5"/>
      <line class="cls-1" x1="20.77" y1="20.62" x2="20.62" y2="20.62"/>
      <line class="cls-1" x1="5.78" y1="35.62" x2="5.62" y2="35.62"/>
      <line class="cls-1" x1="5.78" y1="5.62" x2="5.62" y2="5.62"/>
      <line class="cls-1" x1="223.19" y1="170.62" x2="118.19" y2="170.62"/>
      <polyline class="cls-1" points="223.19 170.62 230.69 230.62 110.69 230.62 118.19 170.62"/>
      <path class="cls-1" d="M223.19,170.62v-15c0-8.29-6.71-15-15-15h-7.5c-8.29,0-15-6.71-15-15v-60c0-8.29-6.71-15-15-15s-15,6.71-15,15v60c0,8.29-6.71,15-15,15h-7.5c-8.29,0-15,6.71-15,15v15"/>
      <line class="cls-1" x1="195.07" y1="185.62" x2="196.94" y2="200.62"/>
      <line class="cls-1" x1="193.19" y1="170.62" x2="195.07" y2="185.62"/>
      <line class="cls-1" x1="163.19" y1="170.62" x2="163.19" y2="185.62"/>
    </g>
  </g>
</svg>