<?xml version="1.0" encoding="UTF-8"?>
<svg id="Capa_2" data-name="Capa 2" xmlns="http://www.w3.org/2000/svg" viewBox="0 0 236.25 206.25">
  <defs>
    <style>
      .cls-1 {
        fill: none;
        stroke: #6d28d9;
        stroke-linecap: round;
        stroke-linejoin: round;
        stroke-width: 11.25px;
      }
    </style>
  </defs>
  <g id="_Ñëîé_1" data-name="Ñëîé 1">
    <g id="clock">
      <circle class="cls-1" cx="118.12" cy="133.12" r="67.5"/>
      <line class="cls-1" x1="118.12" y1="95.62" x2="118.12" y2="133.12"/>
      <line class="cls-1" x1="148.12" y1="133.12" x2="118.12" y2="133.12"/>
      <path class="cls-1" d="M170.62,5.62c33.14,0,60,26.86,60,60"/>
      <path class="cls-1" d="M200.62,65.62c0-16.58-13.42-30-30-30"/>
      <path class="cls-1" d="M5.62,65.62C5.62,32.49,32.49,5.62,65.62,5.62"/>
      <path class="cls-1" d="M65.62,35.62c-16.58,0-30,13.42-30,30"/>
      <line class="cls-1" x1="118.12" y1="50.62" x2="118.12" y2="65.62"/>
      <line class="cls-1" x1="72.06" y1="194.19" x2="78.5" y2="187.75"/>
      <line class="cls-1" x1="65.62" y1="200.62" x2="72.06" y2="194.19"/>
      <line class="cls-1" x1="164.19" y1="194.19" x2="157.74" y2="187.74"/>
      <line class="cls-1" x1="170.62" y1="200.62" x2="164.19" y2="194.19"/>
    </g>
  </g>
</svg>