<?xml version="1.0" encoding="UTF-8"?>
<svg id="Capa_2" data-name="Capa 2" xmlns="http://www.w3.org/2000/svg" xmlns:xlink="http://www.w3.org/1999/xlink" viewBox="0 0 236.25 206.25">
  <defs>
    <style>
      .cls-1 {
        fill: url(#_Áåçûìÿííûé_ãðàäèåíò_3);
      }

      .cls-1, .cls-2 {
        stroke: #6d28d9;
        stroke-linecap: round;
        stroke-linejoin: round;
        stroke-width: 11.25px;
      }

      .cls-2 {
        fill: none;
      }
    </style>
    <linearGradient id="_Áåçûìÿííûé_ãðàäèåíò_3" data-name="Áåçûìÿííûé ãðàäèåíò 3" x1="116.26" y1="35.62" x2="121.88" y2="35.62" gradientUnits="userSpaceOnUse">
      <stop offset="0" stop-color="#fff"/>
      <stop offset="1" stop-color="#000"/>
    </linearGradient>
  </defs>
  <g id="_Ñëîé_1" data-name="Ñëîé 1">
    <g id="coffee">
      <path class="cls-2" d="M35.62,200.62H170.62c16.58,0,30-13.42,30-30H5.62c0,16.58,13.42,30,30,30Z"/>
      <path class="cls-2" d="M185.62,80.62h30c8.29,0,15,6.71,15,15v15c0,16.58-13.42,30-30,30h-17.57"/>
      <path class="cls-2" d="M140.62,170.62c24.87,0,45-20.13,45-45v-45H20.62v45c0,24.87,20.13,45,45,45"/>
      <path class="cls-2" d="M88.12,5.62c12.99,15-12.99,30,0,45"/>
      <path class="cls-1" d="M119.07,20.62c9.74,10-9.74,20,0,30"/>
    </g>
  </g>
</svg>