<?xml version="1.0" encoding="UTF-8"?>
<svg id="Capa_2" data-name="Capa 2" xmlns="http://www.w3.org/2000/svg" viewBox="0 0 236.25 191.25">
  <defs>
    <style>
      .cls-1 {
        fill: none;
        stroke: #6d28d9;
        stroke-linecap: round;
        stroke-linejoin: round;
        stroke-width: 11.25px;
      }
    </style>
  </defs>
  <g id="_Ñëîé_1" data-name="Ñëîé 1">
    <g id="DigitalSecureCage">
      <line class="cls-1" x1="5.62" y1="5.62" x2="230.62" y2="5.62"/>
      <line class="cls-1" x1="5.62" y1="170.62" x2="230.62" y2="170.62"/>
      <line class="cls-1" x1="5.62" y1="5.62" x2="5.62" y2="170.62"/>
      <line class="cls-1" x1="230.62" y1="5.62" x2="230.62" y2="170.62"/>
      <line class="cls-1" x1="125.55" y1="103.12" x2="125.7" y2="103.12"/>
      <line class="cls-1" x1="125.55" y1="80.62" x2="125.7" y2="80.62"/>
      <line class="cls-1" x1="125.62" y1="50.62" x2="170.62" y2="50.62"/>
      <line class="cls-1" x1="148.05" y1="103.12" x2="148.2" y2="103.12"/>
      <line class="cls-1" x1="148.05" y1="80.62" x2="148.2" y2="80.62"/>
      <line class="cls-1" x1="170.55" y1="103.12" x2="170.7" y2="103.12"/>
      <line class="cls-1" x1="170.55" y1="80.62" x2="170.7" y2="80.62"/>
      <line class="cls-1" x1="125.55" y1="125.62" x2="125.7" y2="125.62"/>
      <line class="cls-1" x1="148.05" y1="125.62" x2="148.2" y2="125.62"/>
      <line class="cls-1" x1="170.55" y1="125.62" x2="170.7" y2="125.62"/>
      <line class="cls-1" x1="35.62" y1="110.62" x2="35.62" y2="65.62"/>
      <line class="cls-1" x1="20.62" y1="170.62" x2="20.62" y2="185.62"/>
      <line class="cls-1" x1="215.62" y1="170.62" x2="215.62" y2="185.62"/>
    </g>
  </g>
</svg>