<?xml version="1.0" encoding="UTF-8"?>
<svg id="Capa_2" data-name="Capa 2" xmlns="http://www.w3.org/2000/svg" viewBox="0 0 191.25 236.25">
  <defs>
    <style>
      .cls-1 {
        fill: none;
        stroke: #6d28d9;
        stroke-linecap: round;
        stroke-linejoin: round;
        stroke-width: 11.25px;
      }
    </style>
  </defs>
  <g id="_Ñëîé_1" data-name="Ñëîé 1">
    <g id="drinks">
      <path class="cls-1" d="M80.62,35.62v-15c0-8.29-6.71-15-15-15h-15c-8.29,0-15,6.71-15,15v15h45Z"/>
      <line class="cls-1" x1="5.62" y1="95.62" x2="80.62" y2="95.62"/>
      <line class="cls-1" x1="80.62" y1="155.62" x2="5.62" y2="155.62"/>
      <path class="cls-1" d="M39.38,35.62v15h-3.75c-16.58,0-30,13.42-30,30v120c0,8.29,6.71,15,15,15s7.5-7.5,15-7.5c11.25,0,10.06,7.5,22.5,7.5s11.25-7.5,22.5-7.5"/>
      <path class="cls-1" d="M106.76,65.87c-5.15-9.11-14.92-15.25-26.14-15.25h-3.75v-15"/>
      <path class="cls-1" d="M155.62,50.62v-15c0-8.29-6.71-15-15-15h-15c-8.29,0-15,6.71-15,15v15h45Z"/>
      <line class="cls-1" x1="80.62" y1="110.62" x2="185.62" y2="110.62"/>
      <line class="cls-1" x1="185.62" y1="170.62" x2="80.62" y2="170.62"/>
      <path class="cls-1" d="M151.88,50.62v15h3.75c16.58,0,30,13.42,30,30v120c0,8.29-6.71,15-15,15s-7.5-7.5-15-7.5c-11.25,0-10.06,7.5-22.5,7.5s-11.25-7.5-22.5-7.5c-7.5,0-6.71,7.5-15,7.5s-15-6.71-15-15V95.62c0-16.58,13.42-30,30-30h3.75v-15"/>
    </g>
  </g>
</svg>