<?xml version="1.0" encoding="UTF-8"?>
<svg id="Capa_2" data-name="Capa 2" xmlns="http://www.w3.org/2000/svg" viewBox="0 0 206.25 236.25">
  <defs>
    <style>
      .cls-1 {
        fill: none;
        stroke: #6d28d9;
        stroke-linecap: round;
        stroke-linejoin: round;
        stroke-width: 11.25px;
      }
    </style>
  </defs>
  <g id="_Ñëîé_1" data-name="Ñëîé 1">
    <g id="DrinkAndBottle">
      <path class="cls-1" d="M95.62,230.62V95.62c0-16.58-13.42-30-30-30V5.62h-30v60c-16.58,0-30,13.42-30,30V230.62"/>
      <line class="cls-1" x1="5.62" y1="230.62" x2="95.62" y2="230.62"/>
      <line class="cls-1" x1="35.62" y1="110.62" x2="95.62" y2="110.62"/>
      <line class="cls-1" x1="95.62" y1="185.62" x2="35.62" y2="185.62"/>
      <line class="cls-1" x1="35.62" y1="110.62" x2="35.62" y2="185.62"/>
      <line class="cls-1" x1="140.62" y1="230.62" x2="200.62" y2="230.62"/>
      <line class="cls-1" x1="170.62" y1="185.62" x2="170.62" y2="230.62"/>
      <path class="cls-1" d="M170.62,185.62c-16.58,0-30-13.42-30-30v-45h60v45c0,16.58-13.42,30-30,30Z"/>
      <line class="cls-1" x1="140.62" y1="140.62" x2="200.62" y2="140.62"/>
    </g>
  </g>
</svg>