<?xml version="1.0" encoding="UTF-8"?>
<svg id="Capa_2" data-name="Capa 2" xmlns="http://www.w3.org/2000/svg" viewBox="0 0 236.25 236.25">
  <defs>
    <style>
      .cls-1 {
        stroke-width: 10.67px;
      }

      .cls-1, .cls-2 {
        fill: none;
        stroke: #6d28d9;
        stroke-linecap: round;
        stroke-linejoin: round;
      }

      .cls-2 {
        stroke-width: 11.25px;
      }
    </style>
  </defs>
  <g id="_Ñëîé_1" data-name="Ñëîé 1">
    <g id="enSign">
      <path class="cls-2" d="M230.62,50.62c0-24.87-20.13-45-45-45H50.62C25.75,5.62,5.62,25.75,5.62,50.62V125.62c0,24.87,20.13,45,45,45v60l60-60h75c24.87,0,45-20.13,45-45V50.62Z"/>
      <line class="cls-2" x1="69.38" y1="58.12" x2="69.38" y2="118.12"/>
      <line class="cls-2" x1="106.88" y1="58.12" x2="69.38" y2="58.12"/>
      <line class="cls-2" x1="106.88" y1="118.12" x2="69.38" y2="118.12"/>
      <line class="cls-2" x1="106.88" y1="88.12" x2="69.38" y2="88.12"/>
      <polyline class="cls-1" points="129.38 118.12 129.38 58.12 131.25 58.12 165 118.12 166.88 118.12 166.88 58.12"/>
    </g>
  </g>
</svg>