<?xml version="1.0" encoding="UTF-8"?>
<svg id="Capa_2" data-name="Capa 2" xmlns="http://www.w3.org/2000/svg" viewBox="0 0 236.25 176.25">
  <defs>
    <style>
      .cls-1 {
        fill: none;
        stroke: #6d28d9;
        stroke-linecap: round;
        stroke-linejoin: round;
        stroke-width: 11.25px;
      }
    </style>
  </defs>
  <g id="_Ñëîé_1" data-name="Ñëîé 1">
    <g id="family">
      <circle class="cls-1" cx="43.12" cy="28.12" r="22.5"/>
      <path class="cls-1" d="M65.62,155.62c0,8.29-6.71,15-15,15h-15c-8.29,0-15-6.71-15-15v-45c-8.29,0-15-6.71-15-15v-30c0-8.29,6.71-15,15-15h45c8.29,0,15,6.71,15,15v30c0,8.29-6.71,15-15,15v45Z"/>
      <circle class="cls-1" cx="193.12" cy="28.12" r="22.5"/>
      <path class="cls-1" d="M215.62,155.62c0,8.29-6.71,15-15,15h-15c-8.29,0-15-6.71-15-15v-45c-8.29,0-15-6.71-15-15v-30c0-8.29,6.71-15,15-15h45c8.29,0,15,6.71,15,15v30c0,8.29-6.71,15-15,15v45Z"/>
      <circle class="cls-1" cx="118.12" cy="84.38" r="18.75"/>
      <path class="cls-1" d="M125.62,103.12h-15c-8.29,0-15,6.71-15,15v45c0,4.15,3.35,7.5,7.5,7.5h30c4.15,0,7.5-3.35,7.5-7.5v-45c0-8.29-6.71-15-15-15Z"/>
    </g>
  </g>
</svg>