<?xml version="1.0" encoding="UTF-8"?>
<svg id="Capa_2" data-name="Capa 2" xmlns="http://www.w3.org/2000/svg" viewBox="0 0 236.25 161.25">
  <defs>
    <style>
      .cls-1 {
        fill: none;
        stroke: #6d28d9;
        stroke-linecap: round;
        stroke-linejoin: round;
        stroke-width: 11.25px;
      }
    </style>
  </defs>
  <g id="_Ñëîé_1" data-name="Ñëîé 1">
    <g id="foldedTowels">
      <path class="cls-1" d="M35.62,95.62c-16.58,0-30,13.42-30,30s13.42,30,30,30H215.62c8.29,0,15-6.71,15-15s-6.71-15-15-15c8.29,0,15-6.71,15-15s-6.71-15-15-15"/>
      <line class="cls-1" x1="215.62" y1="125.62" x2="50.62" y2="125.62"/>
      <path class="cls-1" d="M215.62,95.62H20.62c-8.29,0-15-6.71-15-15s6.71-15,15-15"/>
      <path class="cls-1" d="M20.62,65.62c-8.29,0-15-6.71-15-15s6.71-15,15-15H200.62c16.58,0,30,13.42,30,30s-13.42,30-30,30"/>
      <line class="cls-1" x1="20.62" y1="65.62" x2="185.62" y2="65.62"/>
      <path class="cls-1" d="M50.62,35.62c-8.29,0-15-6.71-15-15s6.71-15,15-15H185.62c8.29,0,15,6.71,15,15s-6.71,15-15,15"/>
      <line class="cls-1" x1="35.62" y1="20.62" x2="35.62" y2="20.62"/>
      <line class="cls-1" x1="200.62" y1="20.62" x2="200.62" y2="20.62"/>
    </g>
  </g>
</svg>