<?xml version="1.0" encoding="UTF-8"?>
<svg id="Capa_2" data-name="Capa 2" xmlns="http://www.w3.org/2000/svg" viewBox="0 0 236.25 206.25">
  <defs>
    <style>
      .cls-1 {
        fill: none;
        stroke: #6d28d9;
        stroke-linecap: round;
        stroke-linejoin: round;
        stroke-width: 11.25px;
      }
    </style>
  </defs>
  <g id="_Ñëîé_1" data-name="Ñëîé 1">
    <g id="freeWifi">
      <path class="cls-1" d="M139.38,73.12c-11.75-11.5-30.75-11.5-42.5,0"/>
      <path class="cls-1" d="M160.62,52.32c-23.49-23.01-61.51-23.01-85,0"/>
      <path class="cls-1" d="M181.88,31.51C146.64-3,89.61-3,54.38,31.51"/>
      <line class="cls-1" x1="118.05" y1="95.62" x2="118.2" y2="95.62"/>
      <polyline class="cls-1" points="35.62 140.62 5.62 140.62 5.62 200.62"/>
      <line class="cls-1" x1="35.62" y1="170.62" x2="5.62" y2="170.62"/>
      <line class="cls-1" x1="65.62" y1="200.62" x2="65.62" y2="140.62"/>
      <path class="cls-1" d="M65.62,140.62h30c8.29,0,15,6.71,15,15s-6.71,15-15,15"/>
      <polyline class="cls-1" points="110.62 200.62 95.62 170.62 65.62 170.62"/>
      <polyline class="cls-1" points="170.62 140.62 140.62 140.62 140.62 200.62 170.62 200.62"/>
      <line class="cls-1" x1="170.62" y1="170.62" x2="140.62" y2="170.62"/>
      <polyline class="cls-1" points="230.62 140.62 200.62 140.62 200.62 200.62 230.62 200.62"/>
      <line class="cls-1" x1="230.62" y1="170.62" x2="200.62" y2="170.62"/>
    </g>
  </g>
</svg>