<?xml version="1.0" encoding="UTF-8"?>
<svg id="Capa_2" data-name="Capa 2" xmlns="http://www.w3.org/2000/svg" viewBox="0 0 236.25 146.25">
  <defs>
    <style>
      .cls-1 {
        fill: none;
        stroke: #6d28d9;
        stroke-linecap: round;
        stroke-linejoin: round;
        stroke-width: 11.25px;
      }
    </style>
  </defs>
  <g id="_Ñëîé_1" data-name="Ñëîé 1">
    <g id="gym">
      <line class="cls-1" x1="5.62" y1="28.12" x2="5.62" y2="118.12"/>
      <line class="cls-1" x1="35.62" y1="28.12" x2="5.62" y2="28.12"/>
      <line class="cls-1" x1="35.62" y1="118.12" x2="5.62" y2="118.12"/>
      <line class="cls-1" x1="35.62" y1="5.62" x2="35.62" y2="140.62"/>
      <line class="cls-1" x1="65.62" y1="5.62" x2="65.62" y2="140.62"/>
      <line class="cls-1" x1="35.62" y1="5.62" x2="65.62" y2="5.62"/>
      <line class="cls-1" x1="35.62" y1="140.62" x2="65.62" y2="140.62"/>
      <line class="cls-1" x1="230.62" y1="118.12" x2="230.62" y2="28.12"/>
      <line class="cls-1" x1="200.62" y1="118.12" x2="230.62" y2="118.12"/>
      <line class="cls-1" x1="200.62" y1="28.12" x2="230.62" y2="28.12"/>
      <line class="cls-1" x1="200.62" y1="140.62" x2="200.62" y2="5.62"/>
      <line class="cls-1" x1="170.62" y1="140.62" x2="170.62" y2="5.62"/>
      <line class="cls-1" x1="200.62" y1="140.62" x2="170.62" y2="140.62"/>
      <line class="cls-1" x1="200.62" y1="5.62" x2="170.62" y2="5.62"/>
      <line class="cls-1" x1="65.62" y1="58.12" x2="170.62" y2="58.12"/>
      <line class="cls-1" x1="65.62" y1="88.12" x2="170.62" y2="88.12"/>
    </g>
  </g>
</svg>