<?xml version="1.0" encoding="UTF-8"?>
<svg id="Capa_2" data-name="Capa 2" xmlns="http://www.w3.org/2000/svg" viewBox="0 0 206.25 236.25">
  <defs>
    <style>
      .cls-1 {
        fill: none;
        stroke: #6d28d9;
        stroke-linecap: round;
        stroke-linejoin: round;
        stroke-width: 11.25px;
      }
    </style>
  </defs>
  <g id="_Ñëîé_1" data-name="Ñëîé 1">
    <g id="haircut">
      <circle class="cls-1" cx="35.62" cy="200.62" r="30"/>
      <circle class="cls-1" cx="125.62" cy="200.62" r="30"/>
      <path class="cls-1" d="M95.62,200.62v-45c0-8.29-6.71-15-15-15s-15,6.71-15,15v45"/>
      <path class="cls-1" d="M110.62,5.62l-15,120c0,8.29-6.71,15-15,15s-15-6.71-15-15L50.62,5.62"/>
      <path class="cls-1" d="M155.62,5.62h30c8.29,0,15,6.71,15,15V230.62"/>
      <line class="cls-1" x1="155.62" y1="35.62" x2="200.62" y2="35.62"/>
      <line class="cls-1" x1="155.62" y1="65.62" x2="200.62" y2="65.62"/>
      <line class="cls-1" x1="155.62" y1="95.62" x2="200.62" y2="95.62"/>
      <line class="cls-1" x1="155.62" y1="125.62" x2="200.62" y2="125.62"/>
    </g>
  </g>
</svg>