<?xml version="1.0" encoding="UTF-8"?>
<svg id="Capa_2" data-name="Capa 2" xmlns="http://www.w3.org/2000/svg" viewBox="0 0 236.25 206.25">
  <defs>
    <style>
      .cls-1 {
        fill: none;
        stroke: #6d28d9;
        stroke-linecap: round;
        stroke-linejoin: round;
        stroke-width: 11.25px;
      }
    </style>
  </defs>
  <g id="_Ñëîé_1" data-name="Ñëîé 1">
    <g id="heating">
      <rect class="cls-1" x="50.62" y="61.88" width="135" height="112.5" rx="15" ry="15"/>
      <path class="cls-1" d="M118.12,174.38c-9.2,0-15.34-8.05-15.34-18,0-13.27,10.98-24,24.55-24-6.14,18,6.14,18,6.14,30,0,6.63-6.14,12-15.34,12Z"/>
      <line class="cls-1" x1="99.38" y1="174.38" x2="106.88" y2="174.38"/>
      <path class="cls-1" d="M121.19,174.38c16.96,0,30.68-13.42,30.68-30,0-18-12.27-18-12.27-36-6.14,0-6.14,12-12.27,12,0-19.9-10.98-36-24.55-36,12.27,30-18.41,36-18.41,60,0,16.58,13.72,30,30.68,30"/>
      <line class="cls-1" x1="5.62" y1="200.62" x2="230.62" y2="200.62"/>
      <line class="cls-1" x1="215.62" y1="35.62" x2="215.62" y2="200.62"/>
      <line class="cls-1" x1="20.62" y1="35.62" x2="20.62" y2="200.62"/>
      <rect class="cls-1" x="5.62" y="5.62" width="225" height="30"/>
    </g>
  </g>
</svg>