<?xml version="1.0" encoding="UTF-8"?>
<svg id="Capa_2" data-name="Capa 2" xmlns="http://www.w3.org/2000/svg" viewBox="0 0 236.25 176.25">
  <defs>
    <style>
      .cls-1 {
        fill: none;
        stroke: #6d28d9;
        stroke-linecap: round;
        stroke-linejoin: round;
        stroke-width: 11.25px;
      }
    </style>
  </defs>
  <g id="_Ñëîé_1" data-name="Ñëîé 1">
    <g id="heating">
      <line class="cls-1" x1="206.25" y1="5.62" x2="206.25" y2="20.62"/>
      <line class="cls-1" x1="225" y1="5.62" x2="225" y2="20.62"/>
      <path class="cls-1" d="M208.12,43.12c-4.15,0-7.5-3.35-7.5-7.5v-15h30v15c0,4.15-3.35,7.5-7.5,7.5h-15Z"/>
      <path class="cls-1" d="M215.62,43.12V125.62c0,8.29-6.71,15-15,15h-30"/>
      <path class="cls-1" d="M5.62,20.62V155.62H170.62V20.62c0-8.29-6.71-15-15-15H20.62c-8.29,0-15,6.71-15,15Z"/>
      <line class="cls-1" x1="35.62" y1="35.62" x2="73.12" y2="35.62"/>
      <line class="cls-1" x1="140.62" y1="35.62" x2="103.12" y2="35.62"/>
      <line class="cls-1" x1="20.62" y1="155.62" x2="20.62" y2="170.62"/>
      <line class="cls-1" x1="155.62" y1="155.62" x2="155.62" y2="170.62"/>
      <line class="cls-1" x1="35.62" y1="58.12" x2="73.12" y2="58.12"/>
      <line class="cls-1" x1="140.62" y1="58.12" x2="103.12" y2="58.12"/>
      <line class="cls-1" x1="35.62" y1="80.62" x2="73.12" y2="80.62"/>
      <line class="cls-1" x1="140.62" y1="80.62" x2="103.12" y2="80.62"/>
    </g>
  </g>
</svg>