<?xml version="1.0" encoding="UTF-8"?>
<svg id="Capa_2" data-name="Capa 2" xmlns="http://www.w3.org/2000/svg" viewBox="0 0 236.25 236.25">
  <defs>
    <style>
      .cls-1 {
        fill: none;
        stroke: #6d28d9;
        stroke-linecap: round;
        stroke-linejoin: round;
        stroke-width: 11.25px;
      }
    </style>
  </defs>
  <g id="_Ñëîé_1" data-name="Ñëîé 1">
    <g id="historical">
      <line class="cls-1" x1="58.12" y1="140.62" x2="58.12" y2="230.62"/>
      <line class="cls-1" x1="178.12" y1="140.62" x2="178.12" y2="230.62"/>
      <line class="cls-1" x1="88.12" y1="110.62" x2="88.12" y2="230.62"/>
      <line class="cls-1" x1="148.12" y1="110.62" x2="148.12" y2="230.62"/>
      <line class="cls-1" x1="118.12" y1="110.62" x2="118.12" y2="230.62"/>
      <line class="cls-1" x1="58.12" y1="140.62" x2="58.12" y2="102.81"/>
      <line class="cls-1" x1="178.12" y1="140.62" x2="178.12" y2="102.81"/>
      <line class="cls-1" x1="65.62" y1="80.62" x2="170.62" y2="80.62"/>
      <polyline class="cls-1" points="35.62 35.62 35.62 5.62 200.62 5.62 200.62 35.62"/>
      <path class="cls-1" d="M36.79,70.12c0-4.15,3.35-7.5,7.5-7.5,11.78,0,21.33,9.55,21.33,21.33,0,14.73-11.94,26.67-26.67,26.67-18.41,0-33.33-14.92-33.33-33.33,0-23.01,18.65-41.67,41.67-41.67H188.96c23.01,0,41.67,18.65,41.67,41.67,0,18.41-14.92,33.33-33.33,33.33-14.73,0-26.67-11.94-26.67-26.67,0-11.78,9.55-21.33,21.33-21.33,4.15,0,7.5,3.35,7.5,7.5"/>
    </g>
  </g>
</svg>