<?xml version="1.0" encoding="UTF-8"?>
<svg id="Capa_2" data-name="Capa 2" xmlns="http://www.w3.org/2000/svg" viewBox="0 0 236.25 206.25">
  <defs>
    <style>
      .cls-1 {
        fill: none;
        stroke: #6d28d9;
        stroke-linecap: round;
        stroke-linejoin: round;
        stroke-width: 11.25px;
      }
    </style>
  </defs>
  <g id="_Ñëîé_1" data-name="Ñëîé 1">
    <g id="kingBed">
      <path class="cls-1" d="M215.62,80.62V20.62c0-8.29-6.71-15-15-15H35.62c-8.29,0-15,6.71-15,15v60"/>
      <line class="cls-1" x1="5.62" y1="140.62" x2="230.62" y2="140.62"/>
      <line class="cls-1" x1="5.62" y1="140.62" x2="5.62" y2="185.62"/>
      <line class="cls-1" x1="230.62" y1="140.62" x2="230.62" y2="185.62"/>
      <line class="cls-1" x1="5.62" y1="185.62" x2="230.62" y2="185.62"/>
      <line class="cls-1" x1="20.62" y1="185.62" x2="20.62" y2="200.62"/>
      <line class="cls-1" x1="215.62" y1="185.62" x2="215.62" y2="200.62"/>
      <line class="cls-1" x1="46.88" y1="80.62" x2="46.88" y2="35.62"/>
      <line class="cls-1" x1="106.88" y1="80.62" x2="106.88" y2="35.62"/>
      <line class="cls-1" x1="46.88" y1="35.62" x2="106.88" y2="35.62"/>
      <line class="cls-1" x1="129.38" y1="80.62" x2="129.38" y2="35.62"/>
      <line class="cls-1" x1="189.38" y1="80.62" x2="189.38" y2="35.62"/>
      <line class="cls-1" x1="129.38" y1="35.62" x2="189.38" y2="35.62"/>
      <line class="cls-1" x1="20.62" y1="80.62" x2="215.62" y2="80.62"/>
      <line class="cls-1" x1="13.12" y1="140.62" x2="20.62" y2="80.62"/>
      <line class="cls-1" x1="223.12" y1="140.62" x2="215.62" y2="80.62"/>
    </g>
  </g>
</svg>