<?xml version="1.0" encoding="UTF-8"?>
<svg id="Capa_2" data-name="Capa 2" xmlns="http://www.w3.org/2000/svg" viewBox="0 0 191.25 236.25">
  <defs>
    <style>
      .cls-1 {
        fill: none;
        stroke: #6d28d9;
        stroke-linecap: round;
        stroke-linejoin: round;
        stroke-width: 11.25px;
      }
    </style>
  </defs>
  <g id="_Ñëîé_1" data-name="Ñëîé 1">
    <g id="lockOpen">
      <path class="cls-1" d="M185.62,185.62v-60c0-8.29-6.71-15-15-15H20.62c-8.29,0-15,6.71-15,15v60"/>
      <line class="cls-1" x1="50.62" y1="230.62" x2="140.62" y2="230.62"/>
      <line class="cls-1" x1="88.12" y1="5.62" x2="103.12" y2="5.62"/>
      <line class="cls-1" x1="28.12" y1="110.62" x2="28.12" y2="65.62"/>
      <path class="cls-1" d="M28.12,65.62c0-33.16,26.84-60,60-60"/>
      <path class="cls-1" d="M163.12,65.62c0-33.16-26.84-60-60-60"/>
      <line class="cls-1" x1="95.62" y1="155.62" x2="95.62" y2="185.62"/>
      <path class="cls-1" d="M5.62,185.62c0,24.87,20.13,45,45,45"/>
      <path class="cls-1" d="M185.62,185.62c0,24.87-20.13,45-45,45"/>
    </g>
  </g>
</svg>