<?xml version="1.0" encoding="UTF-8"?>
<svg id="Capa_2" data-name="Capa 2" xmlns="http://www.w3.org/2000/svg" xmlns:xlink="http://www.w3.org/1999/xlink" viewBox="0 0 236.25 206.25">
  <defs>
    <style>
      .cls-1 {
        fill: url(#_Áåçûìÿííûé_ãðàäèåíò_3);
      }

      .cls-1, .cls-2, .cls-3 {
        stroke: #6d28d9;
        stroke-linecap: round;
        stroke-linejoin: round;
        stroke-width: 11.25px;
      }

      .cls-2 {
        fill: none;
      }

      .cls-3 {
        fill: url(#_Áåçûìÿííûé_ãðàäèåíò_3-2);
      }
    </style>
    <linearGradient id="_Áåçûìÿííûé_ãðàäèåíò_3" data-name="Áåçûìÿííûé ãðàäèåíò 3" x1="61.17" y1="65.62" x2="63.98" y2="65.62" gradientUnits="userSpaceOnUse">
      <stop offset="0" stop-color="#fff"/>
      <stop offset="1" stop-color="#000"/>
    </linearGradient>
    <linearGradient id="_Áåçûìÿííûé_ãðàäèåíò_3-2" data-name="Áåçûìÿííûé ãðàäèåíò 3" x1="37.27" y1="58.12" x2="42.89" y2="58.12" xlink:href="#_Áåçûìÿííûé_ãðàäèåíò_3"/>
  </defs>
  <g id="_Ñëîé_1" data-name="Ñëîé 1">
    <g id="mozo">
      <circle class="cls-2" cx="170.62" cy="43.12" r="37.5"/>
      <path class="cls-2" d="M140.62,125.62c0,24.87-20.13,45-45,45H50.62c-8.29,0-15-6.71-15-15s6.71-15,15-15"/>
      <path class="cls-2" d="M230.62,200.62V110.62c0-16.58-13.42-30-30-30h-60c-16.58,0-30,13.42-30,30s-13.42,30-30,30"/>
      <path class="cls-2" d="M95.45,136.61c-2.03-22.99-21.3-40.99-44.82-40.99-24.87,0-45,20.13-45,45H80.62"/>
      <path class="cls-1" d="M62.58,58.12c4.87,5-4.87,10,0,15"/>
      <path class="cls-3" d="M40.08,43.12c9.74,10-9.74,20,0,30"/>
    </g>
  </g>
</svg>