<?xml version="1.0" encoding="UTF-8"?>
<svg id="Capa_2" data-name="Capa 2" xmlns="http://www.w3.org/2000/svg" viewBox="0 0 236.25 191.25">
  <defs>
    <style>
      .cls-1 {
        fill: none;
        stroke: #6d28d9;
        stroke-linecap: round;
        stroke-linejoin: round;
        stroke-width: 11.25px;
      }
    </style>
  </defs>
  <g id="_Ñëîé_1" data-name="Ñëîé 1">
    <g id="nature">
      <path class="cls-1" d="M118.12,185.62c62.18,0,112.5-55.74,112.5-124.62-62.18,0-112.5,55.74-112.5,124.62Z"/>
      <path class="cls-1" d="M118.12,185.62c-62.18,0-112.5-55.74-112.5-124.62,62.18,0,112.5,55.74,112.5,124.62Z"/>
      <path class="cls-1" d="M155.35,92.98c-2.13-36.33-16.5-61.84-37.22-87.35-20.73,25.51-35.09,51.02-37.22,87.35"/>
      <path class="cls-1" d="M44.86,68.8c3.44-13.27,9.1-26.53,17.05-39.25,10.98,5.85,20.27,13.48,27.8,22.42"/>
      <path class="cls-1" d="M191.39,68.8c-3.44-13.27-9.1-26.53-17.05-39.25-10.97,5.85-20.27,13.48-27.8,22.42"/>
    </g>
  </g>
</svg>