<?xml version="1.0" encoding="UTF-8"?>
<svg id="Capa_2" data-name="Capa 2" xmlns="http://www.w3.org/2000/svg" viewBox="0 0 236.25 236.25">
  <defs>
    <style>
      .cls-1 {
        fill: none;
        stroke: #6d28d9;
        stroke-linecap: round;
        stroke-linejoin: round;
        stroke-width: 11.25px;
      }
    </style>
  </defs>
  <g id="_Ñëîé_1" data-name="Ñëîé 1">
    <g id="plane">
      <path class="cls-1" d="M95.62,230.63l-10.39-51.93c14.48-10.76,26.98-22.85,33.8-29.66l7.32-7.32,59.27,88.91,15-15-29.64-118.54,53.05-53.05c8.79-8.79,8.79-23.03,0-31.82-8.79-8.79-23.03-8.79-31.82,0l-53.05,53.05L20.62,35.63l-15,15,88.91,59.27-7.32,7.32c-6.81,6.81-18.9,19.32-29.67,33.79,0,0-51.92-10.38-51.92-10.38v30s33.95,11.32,33.94,11.31c-2.47,6.41-3.94,12.73-3.94,18.69,5.96,0,12.27-1.47,18.68-3.95l11.32,33.95h30Z"/>
    </g>
  </g>
</svg>