<?xml version="1.0" encoding="UTF-8"?>
<svg id="Capa_2" data-name="Capa 2" xmlns="http://www.w3.org/2000/svg" viewBox="0 0 236.25 221.25">
  <defs>
    <style>
      .cls-1 {
        fill: none;
        stroke: #6d28d9;
        stroke-linecap: round;
        stroke-linejoin: round;
        stroke-width: 11.25px;
      }
    </style>
  </defs>
  <g id="_Ñëîé_1" data-name="Ñëîé 1">
    <g>
      <path class="cls-1" d="M170.62,185.62c0-16.58-13.42-30-30-30h-45c-16.58,0-30,13.42-30,30"/>
      <path class="cls-1" d="M95.62,95.67c-34.65-.03-60-1.3-60-15.04"/>
      <path class="cls-1" d="M200.62,80.62c0,13.75-25.35,15.01-60,15.04"/>
      <path class="cls-1" d="M5.62,155.62H43.12c4.15,0,7.5-3.35,7.5-7.5,0-16.58-13.42-22.5-30-22.5l-10.27-.06"/>
      <path class="cls-1" d="M230.62,155.62h-37.5c-4.15,0-7.5-3.35-7.5-7.5,0-16.58,13.42-22.5,30-22.5h10.3"/>
      <path class="cls-1" d="M35.62,80.62H13.12c-4.15,0-7.5,3.35-7.5,7.5v7.5c0,8.29,6.71,15,15,15v.75c-15,15-15,29.25-15,44.25v52.5c0,4.15,3.35,7.5,7.5,7.5h30c4.15,0,7.5-3.35,7.5-7.5v-22.5H185.62v22.5c0,4.15,3.35,7.5,7.5,7.5h30c4.15,0,7.5-3.35,7.5-7.5v-52.5c0-15,0-29.25-15-44.25v-.75c8.29,0,15-6.71,15-15v-7.5c0-4.15-3.35-7.5-7.5-7.5h-22.5"/>
      <path class="cls-1" d="M140.62,28.12v22.5c0,8.29-6.71,15-15,15h-15c-8.29,0-15-6.71-15-15V28.12h45Z"/>
      <line class="cls-1" x1="103.12" y1="5.62" x2="103.12" y2="28.12"/>
      <line class="cls-1" x1="133.12" y1="5.62" x2="133.12" y2="28.12"/>
      <line class="cls-1" x1="118.12" y1="65.62" x2="118.12" y2="125.62"/>
      <path class="cls-1" d="M73.12,21.17c-12.28,1.86-20.14,8.15-22.5,14.45l-15,45"/>
      <path class="cls-1" d="M163.11,21.17c12.29,1.85,20.15,8.15,22.52,14.46l15,45"/>
    </g>
  </g>
</svg>