<?xml version="1.0" encoding="UTF-8"?>
<svg id="Capa_2" data-name="Capa 2" xmlns="http://www.w3.org/2000/svg" viewBox="0 0 236.25 236.25">
  <defs>
    <style>
      .cls-1 {
        fill: none;
        stroke: #6d28d9;
        stroke-linecap: round;
        stroke-linejoin: round;
        stroke-width: 11.25px;
      }
    </style>
  </defs>
  <g id="_Ñëîé_1" data-name="Ñëîé 1">
    <g id="selectablePerson">
      <circle class="cls-1" cx="88.12" cy="58.12" r="22.5"/>
      <path class="cls-1" d="M65.62,125.62v60c0,8.29,6.71,15,15,15h15c8.29,0,15-6.71,15-15v-60"/>
      <path class="cls-1" d="M65.62,125.62c0,8.29-6.71,15-15,15s-15-6.71-15-15v-15c0-16.58,13.42-30,30-30h45c16.58,0,30,13.42,30,30v15c0,8.29-6.71,15-15,15s-15-6.71-15-15"/>
      <polyline class="cls-1" points="200.62 95.62 185.62 80.62 170.62 95.62"/>
      <polyline class="cls-1" points="170.62 125.62 185.62 140.62 200.62 125.62"/>
      <rect class="cls-1" x="5.62" y="5.62" width="225" height="225" rx="15" ry="15"/>
    </g>
  </g>
</svg>