<?xml version="1.0" encoding="UTF-8"?>
<svg id="Capa_2" data-name="Capa 2" xmlns="http://www.w3.org/2000/svg" viewBox="0 0 206.25 236.25">
  <defs>
    <style>
      .cls-1 {
        fill: none;
        stroke: #6d28d9;
        stroke-linecap: round;
        stroke-linejoin: round;
        stroke-width: 11.25px;
      }
    </style>
  </defs>
  <g id="_Ñëîé_1" data-name="Ñëîé 1">
    <g id="showerRoom">
      <line class="cls-1" x1="5.62" y1="5.62" x2="5.62" y2="230.62"/>
      <line class="cls-1" x1="200.62" y1="5.62" x2="200.62" y2="230.62"/>
      <line class="cls-1" x1="5.62" y1="5.62" x2="200.62" y2="5.62"/>
      <line class="cls-1" x1="200.62" y1="230.62" x2="5.62" y2="230.62"/>
      <line class="cls-1" x1="140.62" y1="5.62" x2="140.62" y2="230.62"/>
      <path class="cls-1" d="M65.62,65.62v-15c0-8.29-6.71-15-15-15H5.62"/>
      <line class="cls-1" x1="43.12" y1="65.62" x2="88.12" y2="65.62"/>
      <line class="cls-1" x1="163.12" y1="110.62" x2="163.12" y2="125.62"/>
      <line class="cls-1" x1="43.05" y1="95.62" x2="43.2" y2="95.62"/>
      <line class="cls-1" x1="65.55" y1="95.62" x2="65.7" y2="95.62"/>
      <line class="cls-1" x1="88.05" y1="95.62" x2="88.2" y2="95.62"/>
      <line class="cls-1" x1="43.05" y1="125.62" x2="43.2" y2="125.62"/>
      <line class="cls-1" x1="65.55" y1="125.62" x2="65.7" y2="125.62"/>
      <line class="cls-1" x1="88.05" y1="125.62" x2="88.2" y2="125.62"/>
      <line class="cls-1" x1="43.05" y1="155.62" x2="43.2" y2="155.62"/>
      <line class="cls-1" x1="65.55" y1="155.62" x2="65.7" y2="155.62"/>
      <line class="cls-1" x1="88.05" y1="155.62" x2="88.2" y2="155.62"/>
      <line class="cls-1" x1="43.05" y1="185.62" x2="43.2" y2="185.62"/>
      <line class="cls-1" x1="65.55" y1="185.62" x2="65.7" y2="185.62"/>
      <line class="cls-1" x1="88.05" y1="185.62" x2="88.2" y2="185.62"/>
    </g>
  </g>
</svg>