<?xml version="1.0" encoding="UTF-8"?>
<svg id="Capa_2" data-name="Capa 2" xmlns="http://www.w3.org/2000/svg" viewBox="0 0 146.29 236.25">
  <defs>
    <style>
      .cls-1 {
        fill: none;
        stroke: #6d28d9;
        stroke-linecap: round;
        stroke-linejoin: round;
        stroke-width: 11.25px;
      }
    </style>
  </defs>
  <g id="_Ñëîé_1" data-name="Ñëîé 1">
    <g id="spray">
      <line class="cls-1" x1="73.12" y1="5.62" x2="73.12" y2="35.62"/>
      <path class="cls-1" d="M50.62,65.62c8.29,0,15,6.71,15,15v15c0,15,45,43.42,45,60v60c0,8.29-6.71,15-15,15H20.62c-8.29,0-15-6.71-15-15V80.62c0-8.29,6.71-15,15-15h30Z"/>
      <path class="cls-1" d="M50.62,65.62v-15c0-8.29,6.71-15,15-15,0,16.58,15,27.64,30,37.5"/>
      <path class="cls-1" d="M20.62,65.62v-15c0-8.29-6.71-15-15-15v-15c0-8.29,6.71-15,15-15H88.12c4.15,0,7.5,3.35,7.5,7.5v15c0,4.15-3.35,7.5-7.5,7.5h-22.5"/>
      <line class="cls-1" x1="118.01" y1="20.62" x2="118.16" y2="20.62"/>
      <line class="cls-1" x1="140.51" y1="5.62" x2="140.66" y2="5.62"/>
      <line class="cls-1" x1="140.51" y1="35.62" x2="140.66" y2="35.62"/>
    </g>
  </g>
</svg>