<?xml version="1.0" encoding="UTF-8"?>
<svg id="Capa_2" data-name="Capa 2" xmlns="http://www.w3.org/2000/svg" viewBox="0 0 236.25 146.25">
  <defs>
    <style>
      .cls-1 {
        fill: none;
        stroke: #6d28d9;
        stroke-linecap: round;
        stroke-linejoin: round;
        stroke-width: 11.25px;
      }
    </style>
  </defs>
  <g id="_Ñëîé_1" data-name="Ñëîé 1">
    <g id="swimmingPool">
      <line class="cls-1" x1="110.62" y1="65.62" x2="170.62" y2="65.62"/>
      <line class="cls-1" x1="110.62" y1="35.62" x2="170.62" y2="35.62"/>
      <line class="cls-1" x1="170.62" y1="20.62" x2="170.62" y2="100.26"/>
      <path class="cls-1" d="M185.62,5.62c-8.29,0-15,6.71-15,15"/>
      <line class="cls-1" x1="110.62" y1="20.62" x2="110.62" y2="109.62"/>
      <path class="cls-1" d="M125.62,5.62c-8.29,0-15,6.71-15,15"/>
      <path class="cls-1" d="M230.62,95.62c-18.75,0-18.75,15-37.5,15s-18.75-15-37.5-15-18.75,15-37.5,15-18.75-15-37.5-15-18.75,15-37.5,15-18.75-15-37.5-15"/>
      <path class="cls-1" d="M230.62,125.62c-18.75,0-18.75,15-37.5,15s-18.75-15-37.5-15-18.75,15-37.5,15-18.75-15-37.5-15-18.75,15-37.5,15-18.75-15-37.5-15"/>
    </g>
  </g>
</svg>