<?xml version="1.0" encoding="UTF-8"?>
<svg id="Capa_2" data-name="Capa 2" xmlns="http://www.w3.org/2000/svg" viewBox="0 0 236.25 236.25">
  <defs>
    <style>
      .cls-1 {
        fill: none;
        stroke: #6d28d9;
        stroke-linecap: round;
        stroke-linejoin: round;
        stroke-width: 11.25px;
      }
    </style>
  </defs>
  <g id="_Ñëîé_1" data-name="Ñëîé 1">
    <g id="teather">
      <path class="cls-1" d="M52.5,91.88c11.4,10,29.85,10,41.25,0"/>
      <line class="cls-1" x1="50.71" y1="50.62" x2="50.56" y2="50.62"/>
      <line class="cls-1" x1="95.71" y1="50.62" x2="95.56" y2="50.62"/>
      <path class="cls-1" d="M5.62,5.62H140.62c0,74.62-30,135-67.5,135S5.62,80.24,5.62,5.62Z"/>
      <path class="cls-1" d="M183.75,185.62c-11.4-10-29.85-10-41.25,0"/>
      <line class="cls-1" x1="140.71" y1="140.62" x2="140.56" y2="140.62"/>
      <line class="cls-1" x1="185.71" y1="140.62" x2="185.56" y2="140.62"/>
      <path class="cls-1" d="M123.49,95.62h107.13c0,74.62-30,135-67.5,135-31.32,0-57.4-42.11-65.15-99.46"/>
    </g>
  </g>
</svg>