<?xml version="1.0" encoding="UTF-8"?>
<svg id="Capa_2" data-name="Capa 2" xmlns="http://www.w3.org/2000/svg" viewBox="0 0 86.25 236.25">
  <defs>
    <style>
      .cls-1 {
        fill: none;
        stroke: #6d28d9;
        stroke-linecap: round;
        stroke-linejoin: round;
        stroke-width: 11.25px;
      }
    </style>
  </defs>
  <g id="_Ñëîé_1" data-name="Ñëîé 1">
    <g id="temperature">
      <path class="cls-1" d="M20.62,163.13c-9.1,6.84-14.99,17.73-14.99,30,0,20.71,16.79,37.5,37.5,37.5s37.5-16.79,37.5-37.5c0-12.27-5.89-23.16-15-30,0,0,0-135,0-135,0-12.43-10.07-22.5-22.5-22.5S20.62,15.7,20.62,28.12c0,0,0,135.02,0,135Z"/>
      <circle class="cls-1" cx="43.12" cy="193.12" r="15"/>
      <line class="cls-1" x1="43.12" y1="178.12" x2="43.12" y2="110.62"/>
      <line class="cls-1" x1="65.62" y1="88.12" x2="50.62" y2="88.12"/>
      <line class="cls-1" x1="65.62" y1="65.62" x2="50.62" y2="65.62"/>
      <line class="cls-1" x1="65.62" y1="43.12" x2="50.62" y2="43.12"/>
    </g>
  </g>
</svg>