<?xml version="1.0" encoding="UTF-8"?>
<svg id="Capa_2" data-name="Capa 2" xmlns="http://www.w3.org/2000/svg" viewBox="0 0 236.25 221.25">
  <defs>
    <style>
      .cls-1 {
        fill: none;
        stroke: #6d28d9;
        stroke-linecap: round;
        stroke-linejoin: round;
        stroke-width: 11.25px;
      }
    </style>
  </defs>
  <g id="_Ñëîé_1" data-name="Ñëîé 1">
    <g id="tour_guide">
      <circle class="cls-1" cx="178.12" cy="73.12" r="22.5"/>
      <polyline class="cls-1" points="230.62 35.62 185.62 20.62 230.62 5.62 230.62 73.12 230.62 125.62"/>
      <path class="cls-1" d="M155.62,155.62c-8.29,0-15-6.71-15-15v-30c0-8.29,6.71-15,15-15h45c8.29,0,15,6.71,15,15h0c8.29,0,15,6.71,15,15s-6.71,15-15,15h-15v60c0,8.29-6.71,15-15,15h-15c-8.29,0-15-6.71-15-15v-45Z"/>
      <circle class="cls-1" cx="73.12" cy="73.12" r="22.5"/>
      <path class="cls-1" d="M80.62,215.62c8.29,0,15-6.71,15-15v-45c8.29,0,15-6.71,15-15v-30c0-8.29-6.71-15-15-15H50.62c-8.29,0-15,6.71-15,15v30c0,8.29,6.71,15,15,15v45c0,8.29,6.71,15,15,15h15Z"/>
      <path class="cls-1" d="M58.13,89.89c-3.98,3.57-9.24,5.73-15.01,5.73-12.43,0-22.5-10.07-22.5-22.5s10.07-22.5,22.5-22.5c5.77,0,11.02,2.17,15.01,5.74"/>
      <path class="cls-1" d="M65.62,95.62H20.62c-8.29,0-15,6.71-15,15v30c0,8.29,6.71,15,15,15v45c0,8.29,6.71,15,15,15h15c2.74,0,5.3-.73,7.51-2.01"/>
    </g>
  </g>
</svg>