<?xml version="1.0" encoding="UTF-8"?>
<svg id="Capa_2" data-name="Capa 2" xmlns="http://www.w3.org/2000/svg" viewBox="0 0 236.25 236.25">
  <defs>
    <style>
      .cls-1 {
        fill: none;
        stroke: #6d28d9;
        stroke-linecap: round;
        stroke-linejoin: round;
        stroke-width: 11.25px;
      }
    </style>
  </defs>
  <g id="_Ñëîé_1" data-name="Ñëîé 1">
    <g id="towel">
      <polyline class="cls-1" points="65.62 125.62 50.62 230.62 185.62 230.62 170.62 125.62"/>
      <line class="cls-1" x1="140.62" y1="125.62" x2="140.62" y2="230.62"/>
      <line class="cls-1" x1="65.62" y1="125.62" x2="170.62" y2="125.62"/>
      <path class="cls-1" d="M65.62,125.62v-60c-8.29,0-10.53,7.5-15,15l-15,30-30-15,30-60c7.5-15,20.13-30,45-30l60,120"/>
      <path class="cls-1" d="M170.62,125.62v-60c8.29,0,10.53,7.5,15,15l15,30,30-15-30-60c-7.5-15-20.13-30-45-30l-37.5,65.62"/>
    </g>
  </g>
</svg>