<?xml version="1.0" encoding="UTF-8"?>
<svg id="Capa_2" data-name="Capa 2" xmlns="http://www.w3.org/2000/svg" viewBox="0 0 191.25 236.25">
  <defs>
    <style>
      .cls-1 {
        fill: none;
        stroke: #6d28d9;
        stroke-linecap: round;
        stroke-linejoin: round;
        stroke-width: 11.25px;
      }
    </style>
  </defs>
  <g id="_Ñëîé_1" data-name="Ñëîé 1">
    <g id="vent">
      <circle class="cls-1" cx="95.62" cy="95.62" r="90"/>
      <path class="cls-1" d="M80.62,184.37v23.75h-30c-8.29,0-15,6.71-15,15v7.5h120v-7.5c0-8.29-6.71-15-15-15h-30v-23.75"/>
      <circle class="cls-1" cx="95.62" cy="95.62" r="22.5"/>
      <path class="cls-1" d="M95.62,73.12c0-12.38,22.5-15,22.5-30,0-12.44-10.06-22.5-22.5-22.5-22.5,0-22.5,20.13-22.5,45,0,5.63,3.09,10.53,7.67,13.09"/>
      <path class="cls-1" d="M95.62,118.12c0,12.38-22.5,15-22.5,30,0,12.44,10.06,22.5,22.5,22.5,22.5,0,22.5-20.13,22.5-45,0-5.62-3.09-10.52-7.66-13.09"/>
      <path class="cls-1" d="M118.12,95.62c12.38,0,15,22.5,30,22.5,12.44,0,22.5-10.06,22.5-22.5,0-22.5-20.13-22.5-45-22.5-5.63,0-10.53,3.09-13.09,7.67"/>
      <path class="cls-1" d="M73.12,95.62c-12.38,0-15-22.5-30-22.5-12.44,0-22.5,10.06-22.5,22.5,0,22.5,20.13,22.5,45,22.5,5.62,0,10.52-3.09,13.09-7.66"/>
      <path class="cls-1" d="M153.99,136.5c-4.77,6.8-10.7,12.73-17.5,17.5"/>
      <path class="cls-1" d="M37.26,54.75c4.77-6.8,10.7-12.73,17.5-17.5"/>
      <path class="cls-1" d="M135.84,129.37c-1.47,1.76-3.06,3.41-4.75,4.96"/>
      <path class="cls-1" d="M55.41,61.88c1.47-1.76,3.06-3.41,4.75-4.96"/>
      <path class="cls-1" d="M54.75,153.99c-6.8-4.77-12.73-10.7-17.5-17.5"/>
      <path class="cls-1" d="M136.5,37.26c6.8,4.77,12.73,10.7,17.5,17.5"/>
      <path class="cls-1" d="M61.88,135.84c-1.76-1.47-3.41-3.06-4.96-4.75"/>
      <path class="cls-1" d="M129.37,55.41c1.76,1.47,3.41,3.06,4.96,4.75"/>
    </g>
  </g>
</svg>