<?xml version="1.0" encoding="UTF-8"?>
<svg id="Capa_2" data-name="Capa 2" xmlns="http://www.w3.org/2000/svg" viewBox="0 0 236.25 236.25">
  <defs>
    <style>
      .cls-1 {
        fill: none;
        stroke: #6d28d9;
        stroke-linecap: round;
        stroke-linejoin: round;
        stroke-width: 11.25px;
      }
    </style>
  </defs>
  <g id="_Ñëîé_1" data-name="Ñëîé 1">
    <g id="waterHeating">
      <line class="cls-1" x1="13.12" y1="230.62" x2="193.12" y2="230.62"/>
      <path class="cls-1" d="M13.12,230.62c0-16.58,3.35-30,7.5-30"/>
      <path class="cls-1" d="M193.12,230.62c0-16.58-3.35-30-7.5-30"/>
      <line class="cls-1" x1="110.62" y1="95.62" x2="125.62" y2="95.62"/>
      <path class="cls-1" d="M45.38,20.62c1.73-4.78,3.49-9.73,5.25-15h105c15,45,30,67.09,30,150v45H20.62v-45c0-28.05,1.72-49.13,4.57-66.5,0,0-19.57-68.5-19.57-68.5H45.38Z"/>
      <path class="cls-1" d="M155.62,5.62h45c16.58,0,30,13.42,30,30V125.62c-12.44,0-22.5-10.06-22.5-22.5V43.12c0-8.29-6.71-15-15-15h-29.51"/>
      <path class="cls-1" d="M125.62,88.12v60c0,12.43-10.07,22.5-22.5,22.5s-22.5-10.07-22.5-22.5v-60c0-12.43,10.07-22.5,22.5-22.5s22.5,10.07,22.5,22.5Z"/>
      <line class="cls-1" x1="110.62" y1="140.62" x2="125.62" y2="140.62"/>
      <line class="cls-1" x1="110.62" y1="118.12" x2="125.62" y2="118.12"/>
    </g>
  </g>
</svg>