<?xml version="1.0" encoding="UTF-8"?>
<svg id="Capa_2" data-name="Capa 2" xmlns="http://www.w3.org/2000/svg" viewBox="0 0 314.71 315.09">
  <defs>
    <style>
      .cls-1 {
        fill: #6d28d9;
      }
    </style>
  </defs>
  <g id="Capa_1-2" data-name="Capa 1">
    <g>
      <path class="cls-1" d="M48.71,266.38C-16.24,201.42-16.24,96.12,48.71,31.16c64.95-64.95,52.06,53.25,117.01,118.2,64.95,64.95,183.16,52.06,118.2,117.01-64.95,64.95-170.26,64.95-235.21,0Z"/>
      <path class="cls-1" d="M241.38,146.66c-40.44,0-73.33-32.9-73.33-73.33S200.94,0,241.38,0s73.33,32.9,73.33,73.33-32.9,73.33-73.33,73.33Zm0-123.26c-27.53,0-49.93,22.4-49.93,49.93s22.4,49.93,49.93,49.93,49.93-22.4,49.93-49.93-22.4-49.93-49.93-49.93Z"/>
    </g>
  </g>
</svg>