<?xml version="1.0" encoding="UTF-8"?>
<svg id="Capa_2" data-name="Capa 2" xmlns="http://www.w3.org/2000/svg" xmlns:xlink="http://www.w3.org/1999/xlink" viewBox="0 0 480.3 480.3">
  <defs>
    <style>
      .cls-1 {
        fill: url(#linear-gradient-2);
      }

      .cls-2, .cls-3 {
        fill: #fff;
      }

      .cls-4 {
        fill: #a486f7;
        opacity: .5;
      }

      .cls-5 {
        fill: #383e8c;
      }

      .cls-6 {
        fill: url(#linear-gradient-3);
      }

      .cls-3 {
        opacity: .6;
      }

      .cls-7 {
        fill: url(#linear-gradient);
      }

      .cls-8 {
        fill: url(#linear-gradient-4);
      }
    </style>
    <linearGradient id="linear-gradient" x1="0" y1="240.15" x2="480.3" y2="240.15" gradientUnits="userSpaceOnUse">
      <stop offset="0" stop-color="#eadefe"/>
      <stop offset="1" stop-color="#f9e2ff"/>
    </linearGradient>
    <linearGradient id="linear-gradient-2" x1="170.28" y1="500.76" x2="410.81" y2="60.14" gradientUnits="userSpaceOnUse">
      <stop offset="0" stop-color="#7c74ff"/>
      <stop offset="1" stop-color="#a393fe"/>
    </linearGradient>
    <linearGradient id="linear-gradient-3" x1="205.59" y1="271.73" x2="109.8" y2="418.6" gradientUnits="userSpaceOnUse">
      <stop offset="0" stop-color="#4300fa"/>
      <stop offset="1" stop-color="#525de6"/>
    </linearGradient>
    <linearGradient id="linear-gradient-4" x1="276.68" y1="56.74" x2="193.67" y2="222.77" xlink:href="#linear-gradient-3"/>
  </defs>
  <g id="Layer_2" data-name="Layer 2">
    <g>
      <circle class="cls-7" cx="240.15" cy="240.15" r="240.15"/>
      <g>
        <path class="cls-2" d="M140.4,150.44c-16.14,0-29.23-13.09-29.23-29.23s13.09-29.23,29.23-29.23c7.79,0,14.86,3.05,20.1,8.02-6.99-10.89-19.2-18.11-33.11-18.11-21.72,0-39.32,17.61-39.32,39.32s17.61,39.32,39.32,39.32c13.9,0,26.11-7.22,33.11-18.11-5.24,4.97-12.31,8.02-20.1,8.02Z"/>
        <path class="cls-2" d="M69.87,181.91l2.3-.49c1.69-.36,1.69-2.77,0-3.13l-2.3-.49c-2.02-.43-3.61-2.01-4.04-4.04l-.49-2.3c-.36-1.69-2.77-1.69-3.13,0l-.49,2.3c-.43,2.02-2.01,3.61-4.04,4.04l-2.3,.49c-1.69,.36-1.69,2.77,0,3.13l2.3,.49c2.02,.43,3.61,2.01,4.04,4.04l.49,2.3c.36,1.69,2.77,1.69,3.13,0l.49-2.3c.43-2.02,2.01-3.61,4.04-4.04Z"/>
        <path class="cls-2" d="M114.88,199.67l1.67-.36c1.23-.26,1.23-2.01,0-2.27l-1.67-.36c-1.47-.31-2.62-1.46-2.93-2.93l-.36-1.67c-.26-1.23-2.01-1.23-2.27,0l-.36,1.67c-.31,1.47-1.46,2.62-2.93,2.93l-1.67,.36c-1.23,.26-1.23,2.01,0,2.27l1.67,.36c1.47,.31,2.62,1.46,2.93,2.93l.36,1.67c.26,1.23,2.01,1.23,2.27,0l.36-1.67c.31-1.47,1.46-2.62,2.93-2.93Z"/>
        <path class="cls-2" d="M61.19,228.85l1.67-.36c1.23-.26,1.23-2.01,0-2.27l-1.67-.36c-1.47-.31-2.62-1.46-2.93-2.93l-.36-1.67c-.26-1.23-2.01-1.23-2.27,0l-.36,1.67c-.31,1.47-1.46,2.62-2.93,2.93l-1.67,.36c-1.23,.26-1.23,2.01,0,2.27l1.67,.36c1.47,.31,2.62,1.46,2.93,2.93l.36,1.67c.26,1.23,2.01,1.23,2.27,0l.36-1.67c.31-1.47,1.46-2.62,2.93-2.93Z"/>
        <path class="cls-2" d="M204.19,45.92l1.67-.36c1.23-.26,1.23-2.01,0-2.27l-1.67-.36c-1.47-.31-2.62-1.46-2.93-2.93l-.36-1.67c-.26-1.23-2.01-1.23-2.27,0l-.36,1.67c-.31,1.47-1.46,2.62-2.93,2.93l-1.67,.36c-1.23,.26-1.23,2.01,0,2.27l1.67,.36c1.47,.31,2.62,1.46,2.93,2.93l.36,1.67c.26,1.23,2.01,1.23,2.27,0l.36-1.67c.31-1.47,1.46-2.62,2.93-2.93Z"/>
      </g>
      <g>
        <path class="cls-4" d="M66.35,438.17H413.95c1.7,0,1.83,3.18,.15,3.41-25.74,3.54-79.44,9.58-176.77,9.58s-147.73-6.04-171.13-9.58c-1.68-.25-1.53-3.41,.16-3.41Z"/>
        <g>
          <polygon class="cls-1" points="242.9 29.63 242.9 224.71 173.52 224.71 173.52 438.17 389.02 438.17 389.02 225.2 389.02 224.71 389.02 29.63 242.9 29.63"/>
          <polygon class="cls-6" points="173.52 438.17 85.02 438.17 85.02 339.31 173.52 224.71 173.52 438.17"/>
          <rect class="cls-3" x="234.34" y="307.95" width="32.81" height="31.37"/>
          <rect class="cls-3" x="334.19" y="362.39" width="32.81" height="31.37"/>
          <rect class="cls-3" x="284.27" y="252.81" width="32.81" height="31.37"/>
          <path class="cls-5" d="M128.84,362.39h0c10.94,0,19.82,8.88,19.82,19.82v55.96h-39.63v-55.96c0-10.94,8.88-19.82,19.82-19.82Z"/>
          <polygon class="cls-8" points="242.9 224.71 206.78 224.71 206.78 96.14 242.9 29.14 242.9 224.71"/>
          <rect class="cls-2" x="273.8" y="89.85" width="32.81" height="31.37"/>
          <rect class="cls-3" x="325.31" y="89.85" width="32.81" height="31.37"/>
          <rect class="cls-2" x="325.31" y="173.83" width="32.81" height="31.37"/>
        </g>
      </g>
    </g>
  </g>
</svg>