<?xml version="1.0" encoding="UTF-8"?>
<svg id="Capa_2" data-name="Capa 2" xmlns="http://www.w3.org/2000/svg" xmlns:xlink="http://www.w3.org/1999/xlink" viewBox="0 0 481.19 480.3">
  <defs>
    <style>
      .cls-1 {
        fill: url(#linear-gradient-2);
      }

      .cls-2, .cls-3 {
        fill: #fff;
      }

      .cls-4, .cls-3 {
        opacity: .6;
      }

      .cls-5 {
        fill: url(#linear-gradient-6);
      }

      .cls-6 {
        fill: #a486f7;
        opacity: .5;
      }

      .cls-7 {
        fill: #383e8c;
      }

      .cls-8 {
        fill: url(#linear-gradient-5);
      }

      .cls-9 {
        fill: url(#linear-gradient-7);
      }

      .cls-10 {
        fill: url(#linear-gradient-3);
      }

      .cls-11 {
        fill: url(#linear-gradient);
      }

      .cls-12 {
        fill: url(#linear-gradient-4);
      }
    </style>
    <linearGradient id="linear-gradient" x1=".45" y1="240.15" x2="480.75" y2="240.15" gradientUnits="userSpaceOnUse">
      <stop offset="0" stop-color="#eadefe"/>
      <stop offset="1" stop-color="#f9e2ff"/>
    </linearGradient>
    <linearGradient id="linear-gradient-2" x1="147.23" y1="262.88" x2="36.59" y2="418.55" gradientUnits="userSpaceOnUse">
      <stop offset="0" stop-color="#4300fa"/>
      <stop offset="1" stop-color="#525de6"/>
    </linearGradient>
    <linearGradient id="linear-gradient-3" x1="93.1" y1="308.69" x2="453.58" y2="308.69" gradientUnits="userSpaceOnUse">
      <stop offset="0" stop-color="#7c74ff"/>
      <stop offset="1" stop-color="#a393fe"/>
    </linearGradient>
    <linearGradient id="linear-gradient-4" x1="93.1" y1="242.32" x2="453.58" y2="242.32" gradientUnits="userSpaceOnUse">
      <stop offset="0" stop-color="#b17dfe"/>
      <stop offset="1" stop-color="#f38aff"/>
    </linearGradient>
    <linearGradient id="linear-gradient-5" x1="234.94" y1="100.49" x2="148.75" y2="229.14" xlink:href="#linear-gradient-2"/>
    <linearGradient id="linear-gradient-6" x1="190.19" y1="136.93" x2="388.1" y2="136.93" xlink:href="#linear-gradient-3"/>
    <linearGradient id="linear-gradient-7" x1="190.19" y1="92.26" x2="388.1" y2="92.26" xlink:href="#linear-gradient-4"/>
  </defs>
  <g id="Layer_2" data-name="Layer 2">
    <g>
      <circle class="cls-11" cx="240.6" cy="240.15" r="240.15"/>
      <path class="cls-6" d="M1.85,405.41H479.35c2.33,0,2.52,3.18,.2,3.41-35.36,3.54-109.12,9.58-242.84,9.58s-202.94-6.04-235.08-9.58c-2.3-.25-2.1-3.41,.22-3.41Z"/>
      <g>
        <g>
          <polygon class="cls-1" points="158.58 405.41 27.61 405.41 27.61 272.68 93.1 211.96 158.58 272.68 158.58 405.41"/>
          <polygon class="cls-10" points="453.58 405.41 158.58 405.41 158.58 272.68 93.1 211.96 388.1 211.96 453.58 272.68 453.58 405.41"/>
          <polygon class="cls-12" points="158.58 272.68 93.1 211.96 388.1 211.96 453.58 272.68 158.58 272.68"/>
          <rect class="cls-3" x="268.14" y="336.74" width="29.74" height="28.43"/>
          <rect class="cls-7" x="78.23" y="336.74" width="29.74" height="28.43"/>
          <rect class="cls-3" x="313.39" y="336.74" width="29.74" height="28.43"/>
          <rect class="cls-3" x="403.89" y="336.74" width="29.74" height="28.43"/>
          <rect class="cls-3" x="358.64" y="336.74" width="29.74" height="28.43"/>
          <path class="cls-2" d="M218.72,336.74h0c9.91,0,17.96,8.05,17.96,17.96v50.72h-35.92v-50.72c0-9.91,8.05-17.96,17.96-17.96Z"/>
        </g>
        <polygon class="cls-6" points="124.71 211.96 255.67 233.06 410.85 233.06 388.1 211.96 124.71 211.96"/>
        <polygon class="cls-8" points="255.67 211.96 124.71 211.96 124.71 122.62 190.19 61.9 255.67 122.62 255.67 211.96"/>
        <polygon class="cls-5" points="388.1 211.96 255.67 211.96 255.67 122.62 190.19 61.9 322.62 61.9 388.1 122.62 388.1 211.96"/>
        <polygon class="cls-9" points="255.67 122.62 190.19 61.9 322.62 61.9 388.1 122.62 255.67 122.62"/>
        <g class="cls-4">
          <rect class="cls-2" x="283.01" y="151.96" width="29.74" height="28.43"/>
        </g>
        <rect class="cls-7" x="175.32" y="151.96" width="29.74" height="28.43"/>
        <g class="cls-4">
          <rect class="cls-2" x="329.69" y="151.96" width="29.74" height="28.43"/>
        </g>
      </g>
    </g>
  </g>
</svg>