<?xml version="1.0" encoding="UTF-8"?>
<svg id="Capa_2" data-name="Capa 2" xmlns="http://www.w3.org/2000/svg" xmlns:xlink="http://www.w3.org/1999/xlink" viewBox="0 0 486.26 480.3">
  <defs>
    <style>
      .cls-1 {
        fill: #fff;
      }

      .cls-2 {
        fill: url(#linear-gradient-4);
      }

      .cls-2, .cls-3 {
        mix-blend-mode: multiply;
      }

      .cls-4 {
        opacity: .6;
      }

      .cls-5 {
        mask: url(#mask-2);
      }

      .cls-6 {
        fill: url(#linear-gradient-6);
      }

      .cls-7 {
        mask: url(#mask-3);
      }

      .cls-8 {
        fill: #a486f7;
        opacity: .5;
      }

      .cls-9 {
        filter: url(#luminosity-noclip-4);
      }

      .cls-10 {
        fill: url(#linear-gradient-5);
      }

      .cls-11 {
        fill: #bcaaf9;
      }

      .cls-3 {
        fill: url(#linear-gradient-2);
      }

      .cls-12 {
        fill: #afa0ef;
      }

      .cls-13 {
        fill: url(#linear-gradient-7);
      }

      .cls-14 {
        fill: url(#linear-gradient-9);
      }

      .cls-15 {
        filter: url(#luminosity-noclip-2);
      }

      .cls-16 {
        mask: url(#mask-1);
      }

      .cls-17 {
        mask: url(#mask);
      }

      .cls-18 {
        fill: url(#linear-gradient-3);
      }

      .cls-19 {
        fill: url(#linear-gradient);
      }

      .cls-20 {
        fill: #ccbefc;
      }

      .cls-21 {
        fill: url(#linear-gradient-8);
      }
    </style>
    <linearGradient id="linear-gradient" x1="2.98" y1="240.15" x2="483.28" y2="240.15" gradientUnits="userSpaceOnUse">
      <stop offset="0" stop-color="#eadefe"/>
      <stop offset="1" stop-color="#f9e2ff"/>
    </linearGradient>
    <filter id="luminosity-noclip-2" data-name="luminosity-noclip" x="11.78" y="109.98" width="358.97" height="100.66" color-interpolation-filters="sRGB" filterUnits="userSpaceOnUse">
      <feFlood flood-color="#fff" result="bg"/>
      <feBlend in="SourceGraphic" in2="bg"/>
    </filter>
    <filter id="luminosity-noclip-3" x="6804.98" y="-11123.74" width="-32766" height="32766" color-interpolation-filters="sRGB" filterUnits="userSpaceOnUse">
      <feFlood flood-color="#fff" result="bg"/>
      <feBlend in="SourceGraphic" in2="bg"/>
    </filter>
    <mask id="mask-1" x="6804.98" y="-11123.74" width="-32766" height="32766" maskUnits="userSpaceOnUse"/>
    <linearGradient id="linear-gradient-2" x1="191.27" y1="111.33" x2="191.27" y2="210.11" gradientUnits="userSpaceOnUse">
      <stop offset="0" stop-color="#fff"/>
      <stop offset="1" stop-color="#000"/>
    </linearGradient>
    <mask id="mask" x="11.78" y="109.98" width="358.97" height="100.66" maskUnits="userSpaceOnUse">
      <g class="cls-15">
        <g class="cls-16">
          <path class="cls-3" d="M11.78,210.64s94.68-57.46,152.28-100.66c89.88,52.71,206.69,100.66,206.69,100.66H11.78Z"/>
        </g>
      </g>
    </mask>
    <linearGradient id="linear-gradient-3" x1="191.27" y1="111.33" x2="191.27" y2="210.11" gradientUnits="userSpaceOnUse">
      <stop offset="0" stop-color="#bcaaf9"/>
      <stop offset="1" stop-color="#bcaaf9"/>
    </linearGradient>
    <filter id="luminosity-noclip-4" x="256.65" y="89.98" width="217.83" height="120.67" color-interpolation-filters="sRGB" filterUnits="userSpaceOnUse">
      <feFlood flood-color="#fff" result="bg"/>
      <feBlend in="SourceGraphic" in2="bg"/>
    </filter>
    <filter id="luminosity-noclip-5" x="6804.98" y="-11123.74" width="-32766" height="32766" color-interpolation-filters="sRGB" filterUnits="userSpaceOnUse">
      <feFlood flood-color="#fff" result="bg"/>
      <feBlend in="SourceGraphic" in2="bg"/>
    </filter>
    <mask id="mask-3" x="6804.98" y="-11123.74" width="-32766" height="32766" maskUnits="userSpaceOnUse"/>
    <linearGradient id="linear-gradient-4" x1="278.37" y1="46.61" x2="381.83" y2="210.63" xlink:href="#linear-gradient-2"/>
    <mask id="mask-2" x="256.65" y="89.98" width="217.83" height="120.67" maskUnits="userSpaceOnUse">
      <g class="cls-9">
        <g class="cls-7">
          <path class="cls-2" d="M322.71,89.98c-22.33,25.53-45.75,49.4-66.06,69.06,61.66,30.07,114.11,51.61,114.11,51.61h103.72s-57.25-38.46-151.77-120.67Z"/>
        </g>
      </g>
    </mask>
    <linearGradient id="linear-gradient-5" x1="278.37" y1="46.61" x2="381.83" y2="210.63" xlink:href="#linear-gradient-3"/>
    <linearGradient id="linear-gradient-6" x1="110.64" y1="239.25" x2="39.77" y2="380.98" gradientUnits="userSpaceOnUse">
      <stop offset="0" stop-color="#4300fa"/>
      <stop offset="1" stop-color="#525de6"/>
    </linearGradient>
    <linearGradient id="linear-gradient-7" x1="122.49" y1="319.16" x2="467.39" y2="319.16" gradientUnits="userSpaceOnUse">
      <stop offset="0" stop-color="#7c74ff"/>
      <stop offset="1" stop-color="#a393fe"/>
    </linearGradient>
    <linearGradient id="linear-gradient-8" x1="114.76" y1="173.42" x2="58.52" y2="262.28" gradientUnits="userSpaceOnUse">
      <stop offset="0" stop-color="#5f3ee8"/>
      <stop offset="1" stop-color="#3739d3"/>
    </linearGradient>
    <linearGradient id="linear-gradient-9" x1="141.56" y1="242.91" x2="486.26" y2="242.91" gradientUnits="userSpaceOnUse">
      <stop offset="0" stop-color="#5e65f8"/>
      <stop offset="1" stop-color="#8c7cff"/>
    </linearGradient>
  </defs>
  <g id="Layer_2" data-name="Layer 2">
    <g>
      <circle class="cls-19" cx="243.13" cy="240.15" r="240.15"/>
      <g class="cls-17">
        <path class="cls-18" d="M11.78,210.64s94.68-57.46,152.28-100.66c89.88,52.71,206.69,100.66,206.69,100.66H11.78Z"/>
      </g>
      <g class="cls-5">
        <path class="cls-10" d="M322.71,89.98c-22.33,25.53-45.75,49.4-66.06,69.06,61.66,30.07,114.11,51.61,114.11,51.61h103.72s-57.25-38.46-151.77-120.67Z"/>
      </g>
      <path class="cls-12" d="M88.38,238.3l5.83,2.87s-9.01-11.34-10.08-14.45l5.48,3.36s-2.46-3.1-5.82-9.77c.98,.38,1.99,.7,2.99,.92l-2.65-7.23s9.19,1.74,13.08,3.11c0,0-7.6-10.59-8.84-13.45l5.83,2.87s-9.01-11.34-10.08-14.45l5.48,3.36s-7.07-8.92-13.63-29.01c0,0-5.61,18.42-15.7,31.5l6.88-1.87s-7.42,11.34-10.78,14.08l9.01-2.38s-4.95,7.49-9.01,10.6c0,0,8.03-1.04,13.71-2.38-2.52,5.38-5.81,11.4-9.81,16.58l6.88-1.87s-7.42,11.34-10.78,14.08l9.01-2.38s-4.95,7.49-9.01,10.6c0,0,7.48-.97,13.12-2.24-2.44,5.05-5.52,10.54-9.21,15.32l6.88-1.87s-7.42,11.34-10.78,14.08l9.01-2.38s-4.95,7.49-9.01,10.6c0,0,13.43-1.74,17.85-3.61,0,0,6.36,5.11,12.55,6.48l-2.65-7.23s9.19,1.74,13.08,3.11c0,0-7.6-10.59-8.84-13.45l5.83,2.87s-9.01-11.34-10.08-14.45l5.48,3.36s-2.12-2.68-5.11-8.38c.75,.27,1.52,.49,2.28,.66l-2.65-7.23s9.19,1.74,13.08,3.11c0,0-7.6-10.59-8.84-13.45Z"/>
      <polygon class="cls-20" points="76.8 245.18 52.38 123.35 29.05 245.18 49.36 245.18 49.36 259.73 55.4 259.73 55.4 245.18 76.8 245.18"/>
      <path class="cls-12" d="M131.59,233.85l6.58,4.25s-10.17-16.83-11.37-21.45l6.18,4.99s-2.77-4.61-6.57-14.5c1.11,.56,2.24,1.04,3.38,1.37l-2.99-10.73s10.37,2.59,14.76,4.62c0,0-8.58-15.72-9.97-19.97l6.58,4.25s-10.17-16.83-11.37-21.45l6.18,4.99s-7.98-13.24-15.38-43.07c0,0-6.33,27.35-17.71,46.77l7.76-2.77s-8.38,16.83-12.17,20.9l10.17-3.54s-5.58,11.12-10.17,15.74c0,0,9.06-1.55,15.47-3.53-2.84,7.99-6.56,16.92-11.07,24.61l7.76-2.77s-8.38,16.83-12.17,20.9l10.17-3.54s-5.58,11.12-10.17,15.74c0,0,8.44-1.44,14.8-3.33-2.75,7.49-6.23,15.65-10.39,22.74l7.76-2.77s-8.38,16.83-12.17,20.9l10.17-3.54s-5.58,11.12-10.17,15.74c0,0,15.16-2.59,20.14-5.36,0,0,7.18,7.58,14.16,9.62l-2.99-10.73s10.37,2.59,14.76,4.62c0,0-8.58-15.72-9.97-19.97l6.58,4.25s-10.17-16.83-11.37-21.45l6.18,4.99s-2.39-3.97-5.76-12.44c.85,.39,1.71,.73,2.57,.98l-2.99-10.73s10.37,2.59,14.76,4.62c0,0-8.58-15.72-9.97-19.97Z"/>
      <polygon class="cls-11" points="118.53 272.07 94.1 150.23 70.78 272.07 91.09 272.07 91.09 286.61 97.12 286.61 97.12 272.07 118.53 272.07"/>
      <polygon class="cls-11" points="157.29 258.9 141.2 178.64 125.84 258.9 139.21 258.9 139.21 268.48 143.19 268.48 143.19 258.9 157.29 258.9"/>
      <polygon class="cls-20" points="180.07 245.98 163.99 165.72 148.62 245.98 162 245.98 162 255.56 165.97 255.56 165.97 245.98 180.07 245.98"/>
      <path class="cls-12" d="M443.33,212.86l8.43,5.88s-13.03-23.25-14.57-29.64l7.92,6.9s-3.55-6.37-8.41-20.04c1.42,.78,2.88,1.44,4.32,1.89l-3.83-14.82s13.29,3.58,18.91,6.39c0,0-10.99-21.72-12.78-27.6l8.43,5.88s-13.03-23.25-14.57-29.64l7.92,6.9s-10.22-18.3-19.7-59.52c0,0-8.11,37.79-22.7,64.63l9.94-3.83s-10.73,23.25-15.59,28.88l13.03-4.89s-7.16,15.36-13.03,21.75c0,0,11.61-2.14,19.83-4.88-3.64,11.04-8.4,23.38-14.18,34.01l9.94-3.83s-10.73,23.25-15.59,28.88l13.03-4.89s-7.16,15.36-13.03,21.75c0,0,10.82-1.99,18.96-4.6-3.52,10.36-7.98,21.62-13.32,31.43l9.94-3.83s-10.73,23.25-15.59,28.88l13.03-4.89s-7.16,15.36-13.03,21.75c0,0,19.42-3.58,25.81-7.41,0,0,9.2,10.48,18.14,13.29l-3.83-14.82s13.29,3.58,18.91,6.39c0,0-10.99-21.72-12.78-27.6l8.43,5.88s-13.03-23.25-14.57-29.64l7.92,6.9s-3.06-5.49-7.38-17.2c1.09,.54,2.19,1.01,3.29,1.35l-3.83-14.82s13.29,3.58,18.91,6.39c0,0-10.99-21.72-12.78-27.6Z"/>
      <path class="cls-12" d="M349.92,273.12l7.71,4.25s-11.91-16.83-13.31-21.45l7.24,4.99s-3.25-4.61-7.69-14.5c1.3,.56,2.63,1.04,3.95,1.37l-3.5-10.73s12.14,2.59,17.28,4.62c0,0-10.04-15.72-11.68-19.97l7.71,4.25s-11.91-16.83-13.31-21.45l7.24,4.99s-9.34-13.24-18-43.07c0,0-7.41,27.35-20.74,46.77l9.09-2.77s-9.81,16.83-14.25,20.9l11.91-3.54s-6.54,11.12-11.91,15.74c0,0,10.61-1.55,18.12-3.53-3.33,7.99-7.68,16.92-12.96,24.61l9.09-2.77s-9.81,16.83-14.25,20.9l11.91-3.54s-6.54,11.12-11.91,15.74c0,0,9.89-1.44,17.33-3.33-3.22,7.49-7.3,15.65-12.17,22.74l9.09-2.77s-9.81,16.83-14.25,20.9l11.91-3.54s-6.54,11.12-11.91,15.74c0,0,17.75-2.59,23.59-5.36,0,0,8.41,7.58,16.58,9.62l-3.5-10.73s12.14,2.59,17.28,4.62c0,0-10.04-15.72-11.68-19.97l7.71,4.25s-11.91-16.83-13.31-21.45l7.24,4.99s-2.8-3.97-6.75-12.44c1,.39,2.01,.73,3.01,.98l-3.5-10.73s12.14,2.59,17.28,4.62c0,0-10.04-15.72-11.68-19.97Z"/>
      <path class="cls-11" d="M389.25,218.25l8.89,4.83s-13.75-19.11-15.36-24.36l8.35,5.67s-3.75-5.23-8.87-16.47c1.5,.64,3.03,1.18,4.56,1.56l-4.04-12.18s14.01,2.94,19.94,5.25c0,0-11.59-17.85-13.48-22.68l8.89,4.83s-13.75-19.11-15.36-24.36l8.35,5.67s-10.78-15.04-20.78-48.91c0,0-8.55,31.06-23.94,53.11l10.49-3.15s-11.32,19.11-16.44,23.73l13.74-4.02s-7.55,12.62-13.74,17.87c0,0,12.24-1.76,20.91-4.01-3.84,9.07-8.86,19.22-14.96,27.95l10.49-3.15s-11.32,19.11-16.44,23.73l13.74-4.02s-7.55,12.62-13.74,17.87c0,0,11.41-1.64,20-3.78-3.71,8.51-8.42,17.77-14.04,25.83l10.49-3.15s-11.32,19.11-16.44,23.73l13.74-4.02s-7.55,12.62-13.74,17.87c0,0,20.48-2.94,27.22-6.09,0,0,9.7,8.61,19.14,10.92l-4.04-12.18s14.01,2.94,19.94,5.25c0,0-11.59-17.85-13.48-22.68l8.89,4.83s-13.75-19.11-15.36-24.36l8.35,5.67s-3.23-4.51-7.79-14.13c1.15,.45,2.31,.83,3.47,1.11l-4.04-12.18s14.01,2.94,19.94,5.25c0,0-11.59-17.85-13.48-22.68Z"/>
      <path class="cls-20" d="M413.81,243.34l8.43,4.25s-13.03-16.83-14.57-21.45l7.92,4.99s-3.55-4.61-8.41-14.5c1.42,.56,2.88,1.04,4.32,1.37l-3.83-10.73s13.29,2.59,18.91,4.62c0,0-10.99-15.72-12.78-19.97l8.43,4.25s-13.03-16.83-14.57-21.45l7.92,4.99s-10.22-13.24-19.7-43.07c0,0-8.11,27.35-22.7,46.77l9.94-2.77s-10.73,16.83-15.59,20.9l13.03-3.54s-7.16,11.12-13.03,15.74c0,0,11.61-1.55,19.83-3.53-3.64,7.99-8.4,16.92-14.18,24.61l9.94-2.77s-10.73,16.83-15.59,20.9l13.03-3.54s-7.16,11.12-13.03,15.74c0,0,10.82-1.44,18.96-3.33-3.52,7.49-7.98,15.65-13.32,22.74l9.94-2.77s-10.73,16.83-15.59,20.9l13.03-3.54s-7.16,11.12-13.03,15.74c0,0,19.42-2.59,25.81-5.36,0,0,9.2,7.58,18.14,9.62l-3.83-10.73s13.29,2.59,18.91,4.62c0,0-10.99-15.72-12.78-19.97l8.43,4.25s-13.03-16.83-14.57-21.45l7.92,4.99s-3.06-3.97-7.38-12.44c1.09,.39,2.19,.73,3.29,.98l-3.83-10.73s13.29,2.59,18.91,4.62c0,0-10.99-15.72-12.78-19.97Z"/>
      <g>
        <path class="cls-8" d="M4.38,387.63H481.88c2.33,0,2.52,4.21,.2,4.52-35.36,4.69-109.12,12.68-242.84,12.68s-202.94-7.99-235.08-12.68c-2.3-.34-2.1-4.51,.22-4.51Z"/>
        <g>
          <g>
            <rect class="cls-6" x="18.87" y="250.69" width="103.62" height="136.94"/>
            <rect class="cls-13" x="122.49" y="250.69" width="344.9" height="136.94"/>
          </g>
          <g>
            <rect class="cls-21" y="235.12" width="141.56" height="15.57"/>
            <rect class="cls-14" x="141.56" y="235.12" width="344.7" height="15.57"/>
          </g>
          <g class="cls-4">
            <rect class="cls-1" x="255.04" y="298.9" width="37.47" height="37.47"/>
            <rect class="cls-1" x="324.13" y="298.9" width="37.47" height="37.47"/>
            <rect class="cls-1" x="391.54" y="298.9" width="37.47" height="37.47"/>
          </g>
          <rect class="cls-1" x="177.37" y="298.9" width="42.54" height="88.73"/>
        </g>
      </g>
    </g>
  </g>
</svg>