<?xml version="1.0" encoding="UTF-8"?>
<svg id="Capa_2" data-name="Capa 2" xmlns="http://www.w3.org/2000/svg" xmlns:xlink="http://www.w3.org/1999/xlink" viewBox="0 0 480.3 480.3">
  <defs>
    <style>
      .cls-1 {
        fill: url(#linear-gradient-2);
      }

      .cls-2 {
        fill: #fff;
      }

      .cls-3 {
        opacity: .6;
      }

      .cls-4 {
        fill: url(#linear-gradient-6);
      }

      .cls-5 {
        fill: #a486f7;
        opacity: .5;
      }

      .cls-6 {
        fill: #383e8c;
      }

      .cls-7 {
        fill: url(#linear-gradient-5);
      }

      .cls-8 {
        fill: #bcaaf9;
      }

      .cls-9 {
        fill: #afa0ef;
      }

      .cls-10 {
        fill: url(#linear-gradient-7);
      }

      .cls-11 {
        fill: url(#linear-gradient-3);
      }

      .cls-12 {
        fill: url(#linear-gradient);
      }

      .cls-13 {
        fill: url(#linear-gradient-4);
      }
    </style>
    <linearGradient id="linear-gradient" x1="0" y1="240.15" x2="480.3" y2="240.15" gradientUnits="userSpaceOnUse">
      <stop offset="0" stop-color="#eadefe"/>
      <stop offset="1" stop-color="#f9e2ff"/>
    </linearGradient>
    <linearGradient id="linear-gradient-2" x1="120.68" y1="267.23" x2="25.84" y2="400.66" gradientUnits="userSpaceOnUse">
      <stop offset="0" stop-color="#4300fa"/>
      <stop offset="1" stop-color="#525de6"/>
    </linearGradient>
    <linearGradient id="linear-gradient-3" x1="125.25" y1="340.36" x2="464.99" y2="340.36" gradientUnits="userSpaceOnUse">
      <stop offset="0" stop-color="#7c74ff"/>
      <stop offset="1" stop-color="#a393fe"/>
    </linearGradient>
    <linearGradient id="linear-gradient-4" x1="127.11" y1="305.13" x2="395.41" y2="213.86" gradientUnits="userSpaceOnUse">
      <stop offset="0" stop-color="#b17dfe"/>
      <stop offset="1" stop-color="#f38aff"/>
    </linearGradient>
    <linearGradient id="linear-gradient-5" x1="262.24" y1="302.97" x2="204.34" y2="384.44" xlink:href="#linear-gradient-2"/>
    <linearGradient id="linear-gradient-6" x1="394.24" y1="267.84" x2="291.17" y2="412.86" xlink:href="#linear-gradient-3"/>
    <linearGradient id="linear-gradient-7" x1="156.62" y1="298.37" x2="399.91" y2="215.62" xlink:href="#linear-gradient-4"/>
  </defs>
  <g id="Layer_2" data-name="Layer 2">
    <g>
      <circle class="cls-12" cx="240.15" cy="240.15" r="240.15"/>
      <g>
        <path class="cls-9" d="M43.69,127.33c0,14.82,12.01,26.83,26.83,26.83,7.85,0,14.91-3.37,19.82-8.75,.93,.21,1.88,.38,2.84,.5,2.59,9.8,11.5,17.04,22.12,17.04,2.82,0,5.51-.52,8-1.46,14.3,16.44,34.22,42.32,34.22,58.91v104.37s-4.52,19.27-39.45,19.27h68.11V203.57l45.64-42.32c4,3.44,9.2,5.52,14.9,5.52,12.46,0,22.57-9.95,22.87-22.33,3.06,1.1,6.36,1.7,9.8,1.7,16.01,0,28.99-12.98,28.99-28.99s-12.98-28.99-28.99-28.99c-2.64,0-5.2,.36-7.63,1.02-3.16-2.86-7.1-4.85-11.49-5.59-2.88-12.95-14.05-22.77-27.66-23.59-1.48-19.08-17.41-34.1-36.87-34.1-13.92,0-26.03,7.69-32.35,19.05-1.63-.37-3.32-.58-5.07-.58-10.52,0-19.37,7.11-22.05,16.77-3.26-1.27-6.8-1.97-10.51-1.97-14.07,0-25.79,10.02-28.43,23.31-.95-.26-1.94-.41-2.96-.41-5.57,0-10.19,4.07-11.05,9.4-4.15,2.18-7.7,5.33-10.36,9.15-.81-.07-1.63-.12-2.46-.12-14.82,0-26.83,12.01-26.83,26.83Zm143.07,63.49s20.49-26.67,22.96-26.67c7.15,0,13.82-2.03,19.48-5.54,.44,.53,.92,1.03,1.41,1.51l-43.84,30.7Zm-41.94-20.74c3.17,.88,6.5,1.36,9.95,1.36,12.79,0,24.06-6.49,30.71-16.36,2.89,2.52,6.18,4.59,9.76,6.11l-26.79,22.32c-2.77,2.3-6.8,2.23-9.48-.18-2.85-2.56-7.29-6.68-14.15-13.26Z"/>
        <path class="cls-8" d="M193.86,117.78c-.67,0-1.33,.03-1.98,.09-2.14-3.08-5.01-5.62-8.35-7.38-.7-4.3-4.42-7.59-8.91-7.59-.83,0-1.63,.12-2.39,.33-2.13-10.72-11.59-18.8-22.93-18.8-2.99,0-5.85,.57-8.47,1.59-2.16-7.8-9.3-13.53-17.78-13.53-1.41,0-2.77,.17-4.09,.47-5.09-9.16-14.87-15.36-26.09-15.36-15.69,0-28.55,12.12-29.74,27.5-10.98,.66-19.99,8.58-22.31,19.03-3.53,.6-6.72,2.21-9.26,4.51-1.96-.53-4.03-.83-6.16-.83-12.91,0-23.38,10.47-23.38,23.38s10.47,23.38,23.38,23.38c2.78,0,5.44-.49,7.91-1.37,.25,9.99,8.4,18.01,18.45,18.01,4.59,0,8.79-1.68,12.02-4.45l36.81,34.14v113.31h54.94c-28.17,0-31.82-15.55-31.82-15.55v-84.19c0-13.38,16.06-34.25,27.6-47.51,2.01,.76,4.18,1.17,6.45,1.17,8.57,0,15.75-5.84,17.84-13.75,.78-.1,1.54-.23,2.29-.4,3.96,4.34,9.65,7.06,15.99,7.06,11.95,0,21.64-9.69,21.64-21.64s-9.69-21.64-21.64-21.64Zm-129.13,48.09c.39-.39,.78-.8,1.13-1.22,4.56,2.83,9.94,4.47,15.71,4.47,2,0,3.94-.2,5.83-.58l18.39,29.38-41.06-32.05Zm48.68,30.39l-20.15-29.53c2.89-1.23,5.54-2.9,7.87-4.93,5.36,7.96,14.45,13.19,24.77,13.19,2.78,0,5.47-.38,8.02-1.1-13.03,12.5-20.51,22.36-20.51,22.36Z"/>
      </g>
      <g>
        <g>
          <polygon class="cls-1" points="125.25 385.14 12.15 385.14 12.15 295.59 68.7 219.61 125.25 295.59 125.25 385.14"/>
          <rect class="cls-11" x="125.25" y="295.59" width="339.74" height="89.55"/>
          <polygon class="cls-13" points="125.25 295.59 68.7 219.61 408.44 219.61 464.99 295.59 125.25 295.59"/>
          <rect class="cls-7" x="210.3" y="295.59" width="50.73" height="89.55"/>
          <polygon class="cls-4" points="424.38 385.14 261.02 385.14 261.02 295.59 342.7 219.61 424.38 295.59 424.38 385.14"/>
          <polygon class="cls-10" points="291.97 219.61 342.7 219.61 261.02 295.59 210.3 295.59 291.97 219.61"/>
          <path class="cls-2" d="M342.7,325.83h0c-9.67,0-17.51,7.84-17.51,17.51v41.8h35.02v-41.8c0-9.67-7.84-17.51-17.51-17.51Z"/>
          <polygon class="cls-5" points="210.3 295.59 291.97 219.61 242.56 219.61 210.3 295.59"/>
          <g class="cls-3">
            <rect class="cls-2" x="382.51" y="325.83" width="21.86" height="20.9"/>
          </g>
          <g class="cls-3">
            <rect class="cls-2" x="281.05" y="325.83" width="21.86" height="20.9"/>
          </g>
          <g class="cls-3">
            <rect class="cls-2" x="156.84" y="325.83" width="21.86" height="20.9"/>
          </g>
          <g>
            <rect class="cls-6" x="78.78" y="325.83" width="21.86" height="20.9"/>
            <rect class="cls-6" x="36.76" y="325.83" width="21.86" height="20.9"/>
          </g>
        </g>
        <path class="cls-5" d="M3.94,385.14H476.36c2.3,0,2.49,3.81,.2,4.08-34.98,4.24-107.96,11.47-240.25,11.47s-200.78-7.23-232.58-11.47c-2.28-.3-2.08-4.08,.22-4.08Z"/>
      </g>
    </g>
  </g>
</svg>