<?xml version="1.0" encoding="UTF-8"?>
<svg id="Capa_2" data-name="Capa 2" xmlns="http://www.w3.org/2000/svg" xmlns:xlink="http://www.w3.org/1999/xlink" viewBox="0 0 480.3 480.3">
  <defs>
    <style>
      .cls-1 {
        fill: url(#linear-gradient-2);
      }

      .cls-2 {
        fill: #fff;
      }

      .cls-3 {
        opacity: .6;
      }

      .cls-4 {
        fill: #a486f7;
        opacity: .5;
      }

      .cls-5 {
        fill: #383e8c;
      }

      .cls-6 {
        fill: url(#linear-gradient-3);
      }

      .cls-7 {
        fill: url(#linear-gradient);
      }

      .cls-8 {
        fill: url(#linear-gradient-4);
      }
    </style>
    <linearGradient id="linear-gradient" x1="0" y1="240.15" x2="480.3" y2="240.15" gradientUnits="userSpaceOnUse">
      <stop offset="0" stop-color="#eadefe"/>
      <stop offset="1" stop-color="#f9e2ff"/>
    </linearGradient>
    <linearGradient id="linear-gradient-2" x1="217.66" y1="105.64" x2="125.57" y2="396.57" gradientUnits="userSpaceOnUse">
      <stop offset="0" stop-color="#4300fa"/>
      <stop offset="1" stop-color="#525de6"/>
    </linearGradient>
    <linearGradient id="linear-gradient-3" x1="160.34" y1="249.71" x2="407.88" y2="249.71" gradientUnits="userSpaceOnUse">
      <stop offset="0" stop-color="#7c74ff"/>
      <stop offset="1" stop-color="#a393fe"/>
    </linearGradient>
    <linearGradient id="linear-gradient-4" x1="231.62" y1="156.42" x2="336.31" y2="76.08" gradientUnits="userSpaceOnUse">
      <stop offset="0" stop-color="#b17dfe"/>
      <stop offset="1" stop-color="#f38aff"/>
    </linearGradient>
  </defs>
  <g id="Layer_2" data-name="Layer 2">
    <g>
      <circle class="cls-7" cx="240.15" cy="240.15" r="240.15"/>
      <g>
        <g>
          <polygon class="cls-1" points="248.26 420.3 72.42 420.3 72.42 153.14 160.34 79.13 248.26 153.14 248.26 420.3"/>
          <polygon class="cls-6" points="407.88 420.3 248.26 420.3 248.26 153.14 160.34 79.13 319.96 79.13 407.88 153.14 407.88 420.3"/>
          <polygon class="cls-8" points="248.26 153.14 160.34 79.13 319.96 79.13 407.88 153.14 248.26 153.14"/>
          <path class="cls-5" d="M160.34,336.59h0c12.08,0,21.89,9.81,21.89,21.89v61.82h-43.78v-61.82c0-12.08,9.81-21.89,21.89-21.89Z"/>
          <g class="cls-3">
            <rect class="cls-2" x="288.16" y="336.59" width="36.25" height="34.65"/>
            <rect class="cls-2" x="345.05" y="336.59" width="36.25" height="34.65"/>
          </g>
          <g class="cls-3">
            <rect class="cls-2" x="288.16" y="262.72" width="36.25" height="34.65"/>
            <rect class="cls-2" x="345.05" y="262.72" width="36.25" height="34.65"/>
          </g>
          <g class="cls-3">
            <rect class="cls-2" x="288.16" y="190.6" width="36.25" height="34.65"/>
            <rect class="cls-2" x="345.05" y="190.6" width="36.25" height="34.65"/>
          </g>
          <g>
            <rect class="cls-5" x="109.72" y="262.72" width="36.25" height="34.65"/>
            <rect class="cls-5" x="174.71" y="262.72" width="36.25" height="34.65"/>
          </g>
          <g>
            <rect class="cls-5" x="109.72" y="190.6" width="36.25" height="34.65"/>
            <rect class="cls-5" x="174.71" y="190.6" width="36.25" height="34.65"/>
          </g>
        </g>
        <path class="cls-4" d="M46.63,420.3H433.67c1.89,0,2.04,3.55,.17,3.81-28.66,3.96-88.45,10.7-196.84,10.7s-164.5-6.74-190.55-10.7c-1.87-.28-1.7-3.81,.18-3.81Z"/>
      </g>
    </g>
  </g>
</svg>