<?xml version="1.0" encoding="UTF-8"?>
<svg id="Capa_2" data-name="Capa 2" xmlns="http://www.w3.org/2000/svg" xmlns:xlink="http://www.w3.org/1999/xlink" viewBox="0 0 480.3 488.63">
  <defs>
    <style>
      .cls-1 {
        fill: url(#linear-gradient-2);
      }

      .cls-2, .cls-3, .cls-4 {
        fill: #fff;
      }

      .cls-3 {
        opacity: .3;
      }

      .cls-5 {
        fill: url(#linear-gradient-6);
      }

      .cls-6 {
        fill: #a486f7;
        opacity: .5;
      }

      .cls-7 {
        fill: #383e8c;
      }

      .cls-8 {
        fill: url(#linear-gradient-5);
      }

      .cls-9 {
        fill: url(#linear-gradient-7);
      }

      .cls-10 {
        fill: url(#linear-gradient-3);
      }

      .cls-4 {
        opacity: .6;
      }

      .cls-11 {
        fill: url(#linear-gradient);
      }

      .cls-12 {
        fill: url(#linear-gradient-4);
      }
    </style>
    <linearGradient id="linear-gradient" x1="0" y1="244.32" x2="480.3" y2="244.32" gradientUnits="userSpaceOnUse">
      <stop offset="0" stop-color="#eadefe"/>
      <stop offset="1" stop-color="#f9e2ff"/>
    </linearGradient>
    <linearGradient id="linear-gradient-2" x1="265.91" y1="41.3" x2="138.39" y2="468.39" gradientUnits="userSpaceOnUse">
      <stop offset="0" stop-color="#4300fa"/>
      <stop offset="1" stop-color="#525de6"/>
    </linearGradient>
    <linearGradient id="linear-gradient-3" x1="248.59" y1="36.13" x2="121.08" y2="463.22" xlink:href="#linear-gradient-2"/>
    <linearGradient id="linear-gradient-4" x1="255.83" y1="38.29" x2="128.31" y2="465.38" xlink:href="#linear-gradient-2"/>
    <linearGradient id="linear-gradient-5" x1="178.6" y1="489.88" x2="404.09" y2="66.68" gradientUnits="userSpaceOnUse">
      <stop offset="0" stop-color="#7c74ff"/>
      <stop offset="1" stop-color="#a393fe"/>
    </linearGradient>
    <linearGradient id="linear-gradient-6" x1="258.44" y1="26.09" x2="208.73" y2="59.23" gradientUnits="userSpaceOnUse">
      <stop offset="0" stop-color="#5f3ee8"/>
      <stop offset="1" stop-color="#3739d3"/>
    </linearGradient>
    <linearGradient id="linear-gradient-7" x1="295.75" y1="47.96" x2="339.69" y2="36.72" gradientUnits="userSpaceOnUse">
      <stop offset="0" stop-color="#5e65f8"/>
      <stop offset="1" stop-color="#8c7cff"/>
    </linearGradient>
  </defs>
  <g id="Layer_2" data-name="Layer 2">
    <g>
      <circle class="cls-11" cx="240.15" cy="244.32" r="240.15"/>
      <g>
        <path class="cls-6" d="M115.94,479.08h248.42c1.21,0,1.31,2.34,.11,2.51-18.4,2.61-56.77,7.05-126.34,7.05s-105.58-4.44-122.3-7.05c-1.2-.19-1.09-2.51,.11-2.51Z"/>
        <g>
          <g>
            <rect class="cls-1" x="130.75" y="300.77" width="62.14" height="178.31"/>
            <rect class="cls-10" x="161.82" y="176.88" width="52.45" height="124.07"/>
            <rect class="cls-12" x="214.27" y="53.18" width="37.18" height="124.07"/>
            <polygon class="cls-8" points="251.45 53.18 251.45 176.88 214.27 176.88 214.27 300.77 192.89 300.77 192.89 479.08 344.2 479.08 344.2 300.95 344.2 300.77 344.2 177.25 344.2 176.88 344.2 53.18 251.45 53.18"/>
            <rect class="cls-5" x="205.81" y="41.28" width="41.85" height="11.9"/>
            <rect class="cls-9" x="247.66" y="41.28" width="101.9" height="11.9"/>
            <g>
              <rect class="cls-2" x="243.03" y="432.57" width="24.15" height="46.51"/>
              <rect class="cls-2" x="269.9" y="432.57" width="24.15" height="46.51"/>
            </g>
            <rect class="cls-7" x="297.14" width="4.4" height="41.28"/>
            <rect class="cls-7" x="280.21" y="18.23" width="4.4" height="23.05"/>
            <rect class="cls-7" x="263.27" y="18.23" width="4.4" height="23.05"/>
          </g>
          <rect class="cls-3" x="269.9" y="74.42" width="74.29" height="3.49"/>
          <rect class="cls-4" x="269.9" y="92.12" width="74.29" height="3.49"/>
          <rect class="cls-3" x="269.9" y="109.81" width="74.29" height="3.49"/>
          <rect class="cls-3" x="269.9" y="127.51" width="74.29" height="3.49"/>
          <rect class="cls-4" x="269.9" y="145.21" width="74.29" height="3.49"/>
          <rect class="cls-4" x="269.9" y="162.91" width="74.29" height="3.49"/>
          <rect class="cls-4" x="232.86" y="194.16" width="111.33" height="3.49"/>
          <rect class="cls-3" x="232.86" y="211.85" width="111.33" height="3.49"/>
          <rect class="cls-3" x="232.86" y="229.55" width="111.33" height="3.49"/>
          <rect class="cls-4" x="232.86" y="247.25" width="111.33" height="3.49"/>
          <rect class="cls-4" x="232.86" y="264.95" width="111.33" height="3.49"/>
          <rect class="cls-4" x="232.86" y="282.65" width="111.33" height="3.49"/>
          <rect class="cls-4" x="211.07" y="319.66" width="133.13" height="3.49"/>
          <rect class="cls-3" x="211.07" y="337.36" width="133.13" height="3.49"/>
          <rect class="cls-4" x="211.07" y="355.06" width="133.13" height="3.49"/>
          <rect class="cls-3" x="211.07" y="372.75" width="133.13" height="3.49"/>
          <rect class="cls-3" x="211.07" y="390.45" width="133.13" height="3.49"/>
          <rect class="cls-4" x="211.07" y="408.15" width="133.13" height="3.49"/>
        </g>
      </g>
    </g>
  </g>
</svg>