<?xml version="1.0" encoding="UTF-8"?>
<svg id="Capa_2" data-name="Capa 2" xmlns="http://www.w3.org/2000/svg" xmlns:xlink="http://www.w3.org/1999/xlink" viewBox="0 0 481.19 480.3">
  <defs>
    <style>
      .cls-1 {
        fill: url(#linear-gradient-2);
      }

      .cls-2, .cls-3, .cls-4 {
        fill: #fff;
      }

      .cls-5, .cls-4 {
        opacity: .6;
      }

      .cls-3 {
        opacity: .3;
      }

      .cls-6 {
        fill: url(#linear-gradient-6);
      }

      .cls-7 {
        fill: #a486f7;
        opacity: .5;
      }

      .cls-8 {
        fill: url(#linear-gradient-11);
      }

      .cls-9 {
        fill: #383e8c;
      }

      .cls-10 {
        fill: url(#linear-gradient-10);
      }

      .cls-11 {
        fill: url(#linear-gradient-5);
      }

      .cls-12 {
        fill: url(#linear-gradient-7);
      }

      .cls-13 {
        fill: url(#linear-gradient-9);
      }

      .cls-14 {
        fill: url(#linear-gradient-3);
      }

      .cls-15 {
        fill: url(#linear-gradient);
      }

      .cls-16 {
        fill: url(#linear-gradient-4);
      }

      .cls-17 {
        fill: url(#linear-gradient-8);
      }

      .cls-18 {
        fill: url(#linear-gradient-12);
      }
    </style>
    <linearGradient id="linear-gradient" x1=".45" y1="240.15" x2="480.75" y2="240.15" gradientUnits="userSpaceOnUse">
      <stop offset="0" stop-color="#eadefe"/>
      <stop offset="1" stop-color="#f9e2ff"/>
    </linearGradient>
    <linearGradient id="linear-gradient-2" x1="132.38" y1="77.72" x2="29.05" y2="400.25" gradientUnits="userSpaceOnUse">
      <stop offset="0" stop-color="#4300fa"/>
      <stop offset="1" stop-color="#525de6"/>
    </linearGradient>
    <linearGradient id="linear-gradient-3" x1="123.25" y1="242.41" x2="292.12" y2="242.41" gradientUnits="userSpaceOnUse">
      <stop offset="0" stop-color="#7c74ff"/>
      <stop offset="1" stop-color="#a393fe"/>
    </linearGradient>
    <linearGradient id="linear-gradient-4" x1="18.84" y1="63.23" x2="106.1" y2="63.23" gradientUnits="userSpaceOnUse">
      <stop offset="0" stop-color="#5f3ee8"/>
      <stop offset="1" stop-color="#3739d3"/>
    </linearGradient>
    <linearGradient id="linear-gradient-5" x1="106.1" y1="63.23" x2="455.15" y2="63.23" gradientUnits="userSpaceOnUse">
      <stop offset="0" stop-color="#5e65f8"/>
      <stop offset="1" stop-color="#8c7cff"/>
    </linearGradient>
    <linearGradient id="linear-gradient-6" x1="47.52" y1="340.76" x2="734.43" y2="-402.69" xlink:href="#linear-gradient-5"/>
    <linearGradient id="linear-gradient-7" x1="92.95" y1="99.52" x2="990.22" y2="-137.09" xlink:href="#linear-gradient-5"/>
    <linearGradient id="linear-gradient-8" x1="261.16" x2="430.04" xlink:href="#linear-gradient-3"/>
    <linearGradient id="linear-gradient-9" x1="122.02" y1="409.39" x2="808.94" y2="-334.06" xlink:href="#linear-gradient-5"/>
    <linearGradient id="linear-gradient-10" x1="101.91" y1="133.52" x2="999.19" y2="-103.09" xlink:href="#linear-gradient-5"/>
    <linearGradient id="linear-gradient-11" x1="196.69" y1="478.38" x2="883.61" y2="-265.07" xlink:href="#linear-gradient-5"/>
    <linearGradient id="linear-gradient-12" x1="110.91" y1="167.65" x2="1008.19" y2="-68.96" xlink:href="#linear-gradient-5"/>
  </defs>
  <g id="Layer_2" data-name="Layer 2">
    <g>
      <circle class="cls-15" cx="240.6" cy="240.15" r="240.15"/>
      <path class="cls-7" d="M1.85,410.73H479.35c2.33,0,2.52,4.21,.2,4.52-35.36,4.69-109.12,12.68-242.84,12.68s-202.94-7.99-235.08-12.68c-2.3-.34-2.1-4.51,.22-4.51Z"/>
      <g>
        <rect class="cls-1" x="35.99" y="74.08" width="87.26" height="336.64"/>
        <rect class="cls-14" x="123.25" y="74.08" width="168.87" height="336.64"/>
        <rect class="cls-16" x="18.84" y="52.38" width="87.26" height="21.71"/>
        <rect class="cls-11" x="106.1" y="52.38" width="349.05" height="21.71"/>
        <g>
          <rect class="cls-6" x="123.25" y="74.08" width="30.29" height="336.64"/>
          <rect class="cls-9" x="118.97" y="74.08" width="4.27" height="336.64"/>
          <rect class="cls-12" x="117.13" y="74.08" width="44.54" height="26.36"/>
          <rect class="cls-9" x="110.85" y="74.08" width="6.28" height="26.36"/>
          <rect class="cls-3" x="123.25" y="379.7" width="30.29" height="4.27"/>
          <rect class="cls-3" x="123.25" y="348.67" width="30.29" height="4.27"/>
          <rect class="cls-3" x="123.25" y="317.64" width="30.29" height="4.27"/>
          <rect class="cls-3" x="123.25" y="286.62" width="30.29" height="4.27"/>
          <rect class="cls-3" x="123.25" y="255.59" width="30.29" height="4.27"/>
          <rect class="cls-3" x="123.25" y="224.56" width="30.29" height="4.27"/>
          <rect class="cls-3" x="123.25" y="193.53" width="30.29" height="4.27"/>
          <rect class="cls-3" x="123.25" y="162.5" width="30.29" height="4.27"/>
          <rect class="cls-3" x="123.25" y="131.48" width="30.29" height="4.27"/>
          <rect class="cls-9" x="123.25" y="100.45" width="30.29" height="4.27"/>
        </g>
        <path class="cls-2" d="M207.68,322.17h0c-12.79,0-23.16,10.37-23.16,23.16v65.4h46.32v-65.4c0-12.79-10.37-23.16-23.16-23.16Z"/>
        <rect class="cls-17" x="261.16" y="74.08" width="168.87" height="336.64"/>
        <g>
          <rect class="cls-13" x="261.16" y="74.08" width="30.29" height="336.64"/>
          <rect class="cls-9" x="256.89" y="74.08" width="4.27" height="336.64"/>
          <rect class="cls-10" x="255.05" y="74.08" width="44.54" height="26.36"/>
          <rect class="cls-9" x="248.76" y="74.08" width="6.28" height="26.36"/>
          <rect class="cls-3" x="261.16" y="379.7" width="30.29" height="4.27"/>
          <rect class="cls-3" x="261.16" y="348.67" width="30.29" height="4.27"/>
          <rect class="cls-3" x="261.16" y="317.64" width="30.29" height="4.27"/>
          <rect class="cls-3" x="261.16" y="286.62" width="30.29" height="4.27"/>
          <rect class="cls-3" x="261.16" y="255.59" width="30.29" height="4.27"/>
          <rect class="cls-3" x="261.16" y="224.56" width="30.29" height="4.27"/>
          <rect class="cls-3" x="261.16" y="193.53" width="30.29" height="4.27"/>
          <rect class="cls-3" x="261.16" y="162.5" width="30.29" height="4.27"/>
          <rect class="cls-3" x="261.16" y="131.48" width="30.29" height="4.27"/>
          <rect class="cls-9" x="261.16" y="100.45" width="30.29" height="4.27"/>
        </g>
        <g>
          <rect class="cls-8" x="399.58" y="74.08" width="30.29" height="336.64"/>
          <rect class="cls-9" x="395.3" y="74.08" width="4.27" height="336.64"/>
          <rect class="cls-18" x="393.46" y="74.08" width="44.54" height="26.36"/>
          <rect class="cls-9" x="387.18" y="74.08" width="6.28" height="26.36"/>
          <rect class="cls-3" x="399.58" y="379.7" width="30.29" height="4.27"/>
          <rect class="cls-3" x="399.58" y="348.67" width="30.29" height="4.27"/>
          <rect class="cls-3" x="399.58" y="317.64" width="30.29" height="4.27"/>
          <rect class="cls-3" x="399.58" y="286.62" width="30.29" height="4.27"/>
          <rect class="cls-3" x="399.58" y="255.59" width="30.29" height="4.27"/>
          <rect class="cls-3" x="399.58" y="224.56" width="30.29" height="4.27"/>
          <rect class="cls-3" x="399.58" y="193.53" width="30.29" height="4.27"/>
          <rect class="cls-3" x="399.58" y="162.5" width="30.29" height="4.27"/>
          <rect class="cls-3" x="399.58" y="131.48" width="30.29" height="4.27"/>
          <rect class="cls-9" x="399.58" y="100.45" width="30.29" height="4.27"/>
        </g>
        <path class="cls-2" d="M345.6,322.17h0c12.78,0,23.16,10.38,23.16,23.16v65.4h-46.32v-65.4c0-12.78,10.38-23.16,23.16-23.16Z"/>
        <rect class="cls-9" x="35.99" y="74.08" width="402.01" height="5.67"/>
        <g>
          <path class="cls-4" d="M204.85,137.73c-9.24,1.37-16.34,9.32-16.34,18.94v3h16.34v-21.94Z"/>
          <rect class="cls-4" x="188.51" y="165.34" width="16.34" height="19.76"/>
          <rect class="cls-4" x="210.52" y="165.34" width="16.34" height="19.76"/>
          <path class="cls-4" d="M210.52,137.73v21.94h16.34v-3c0-9.62-7.1-17.57-16.34-18.94Z"/>
        </g>
        <g>
          <path class="cls-4" d="M342.77,137.73c-9.24,1.37-16.34,9.32-16.34,18.94v3h16.34v-21.94Z"/>
          <path class="cls-4" d="M348.44,137.73v21.94h16.34v-3c0-9.62-7.1-17.57-16.34-18.94Z"/>
          <rect class="cls-4" x="326.43" y="165.34" width="16.34" height="19.76"/>
          <rect class="cls-4" x="348.44" y="165.34" width="16.34" height="19.76"/>
        </g>
        <g class="cls-5">
          <path class="cls-2" d="M204.85,227.49c-9.24,1.37-16.34,9.32-16.34,18.94v3h16.34v-21.94Z"/>
          <rect class="cls-2" x="188.51" y="255.1" width="16.34" height="19.76"/>
          <path class="cls-2" d="M210.52,227.49v21.94h16.34v-3c0-9.62-7.1-17.57-16.34-18.94Z"/>
          <rect class="cls-2" x="210.52" y="255.1" width="16.34" height="19.76"/>
        </g>
        <g class="cls-5">
          <path class="cls-2" d="M342.77,227.49c-9.24,1.37-16.34,9.32-16.34,18.94v3h16.34v-21.94Z"/>
          <rect class="cls-2" x="326.43" y="255.1" width="16.34" height="19.76"/>
          <path class="cls-2" d="M348.44,227.49v21.94h16.34v-3c0-9.62-7.1-17.57-16.34-18.94Z"/>
          <rect class="cls-2" x="348.44" y="255.1" width="16.34" height="19.76"/>
        </g>
      </g>
    </g>
  </g>
</svg>