<?xml version="1.0" encoding="UTF-8"?>
<svg id="Capa_2" data-name="Capa 2" xmlns="http://www.w3.org/2000/svg" xmlns:xlink="http://www.w3.org/1999/xlink" viewBox="0 0 480.3 480.3">
  <defs>
    <style>
      .cls-1 {
        fill: url(#linear-gradient-2);
      }

      .cls-2, .cls-3, .cls-4 {
        fill: #fff;
      }

      .cls-5, .cls-4 {
        opacity: .6;
      }

      .cls-3 {
        opacity: .3;
      }

      .cls-6 {
        fill: url(#linear-gradient-6);
      }

      .cls-7 {
        fill: #a486f7;
        opacity: .5;
      }

      .cls-8 {
        fill: url(#linear-gradient-11);
      }

      .cls-9 {
        fill: #383e8c;
      }

      .cls-10 {
        fill: url(#linear-gradient-10);
      }

      .cls-11 {
        fill: url(#linear-gradient-5);
      }

      .cls-12 {
        fill: url(#linear-gradient-7);
      }

      .cls-13 {
        fill: url(#linear-gradient-9);
      }

      .cls-14 {
        fill: url(#linear-gradient-3);
      }

      .cls-15 {
        fill: url(#linear-gradient);
      }

      .cls-16 {
        fill: url(#linear-gradient-4);
      }

      .cls-17 {
        fill: url(#linear-gradient-8);
      }
    </style>
    <linearGradient id="linear-gradient" x1="0" y1="240.15" x2="480.3" y2="240.15" gradientUnits="userSpaceOnUse">
      <stop offset="0" stop-color="#eadefe"/>
      <stop offset="1" stop-color="#f9e2ff"/>
    </linearGradient>
    <linearGradient id="linear-gradient-2" x1="323.07" y1="278.75" x2="493.99" y2="220.21" gradientUnits="userSpaceOnUse">
      <stop offset="0" stop-color="#5e65f8"/>
      <stop offset="1" stop-color="#8c7cff"/>
    </linearGradient>
    <linearGradient id="linear-gradient-3" x1="133.26" y1="143.58" x2="827.76" y2="33.01" gradientUnits="userSpaceOnUse">
      <stop offset="0" stop-color="#5f3ee8"/>
      <stop offset="1" stop-color="#3739d3"/>
    </linearGradient>
    <linearGradient id="linear-gradient-4" x1="183.28" y1="69.69" x2="-17.17" y2="373.67" gradientUnits="userSpaceOnUse">
      <stop offset="0" stop-color="#4300fa"/>
      <stop offset="1" stop-color="#525de6"/>
    </linearGradient>
    <linearGradient id="linear-gradient-5" x1="24.58" y1="329.23" x2="411.09" y2="39.34" gradientUnits="userSpaceOnUse">
      <stop offset="0" stop-color="#7c74ff"/>
      <stop offset="1" stop-color="#a393fe"/>
    </linearGradient>
    <linearGradient id="linear-gradient-6" x1="42.91" y1="104.99" x2="216.54" y2="59.4" xlink:href="#linear-gradient-3"/>
    <linearGradient id="linear-gradient-7" x1="126.41" y1="100.55" x2="820.91" y2="-10.03" xlink:href="#linear-gradient-2"/>
    <linearGradient id="linear-gradient-8" x1="276.79" y1="135.86" x2="76.34" y2="439.84" xlink:href="#linear-gradient-4"/>
    <linearGradient id="linear-gradient-9" x1="81.83" y1="410.58" x2="466.21" y2="122.3" xlink:href="#linear-gradient-5"/>
    <linearGradient id="linear-gradient-10" x1="51.68" y1="138.4" x2="225.31" y2="92.81" xlink:href="#linear-gradient-3"/>
    <linearGradient id="linear-gradient-11" x1="130.36" y1="125.42" x2="824.87" y2="14.84" xlink:href="#linear-gradient-2"/>
  </defs>
  <g id="Layer_2" data-name="Layer 2">
    <g>
      <circle class="cls-15" cx="240.15" cy="240.15" r="240.15"/>
      <g>
        <g>
          <path class="cls-7" d="M37.44,395.09H468.39c2.1,0,2.27,2.81,.18,3.02-13.74,1.35-60.73,2.47-90.09,8.77-11.75,2.52,.06,13.37-13.86,13.89-32.08,1.21-136.3,.24-152.79,0-4.1-.06-24.3-13.82-28.23-13.89-78.61-1.47-123.17-6.27-146.36-8.77-2.08-.22-1.89-3.01,.2-3.01Z"/>
          <g>
            <rect class="cls-1" x="364.62" y="103.25" width="89.62" height="291.83"/>
            <rect class="cls-14" x="364.62" y="94.64" width="97.98" height="8.62"/>
          </g>
          <g>
            <g>
              <rect class="cls-16" x="50.81" y="103.25" width="28.23" height="291.83"/>
              <rect class="cls-11" x="79.04" y="103.25" width="104.57" height="291.83"/>
            </g>
            <g>
              <rect class="cls-6" x="42.45" y="94.64" width="46.91" height="8.62"/>
              <rect class="cls-12" x="89.36" y="94.64" width="94.24" height="8.62"/>
            </g>
          </g>
          <g>
            <g>
              <polygon class="cls-17" points="211.83 408.31 183.6 395.09 183.6 103.25 211.83 103.25 211.83 408.31"/>
              <rect class="cls-13" x="211.83" y="103.25" width="152.79" height="305.05"/>
            </g>
            <g>
              <rect class="cls-10" x="183.6" y="94.64" width="36.67" height="8.62"/>
              <rect class="cls-8" x="220.28" y="94.64" width="152.7" height="8.62"/>
            </g>
          </g>
          <g>
            <rect class="cls-2" x="96.13" y="240.43" width="13.79" height="13.79"/>
            <rect class="cls-4" x="124.22" y="240.43" width="13.79" height="13.79"/>
            <rect class="cls-4" x="151.69" y="240.43" width="13.79" height="13.79"/>
            <rect class="cls-3" x="96.13" y="213.02" width="13.79" height="13.79"/>
            <rect class="cls-3" x="124.22" y="213.02" width="13.79" height="13.79"/>
            <rect class="cls-4" x="151.69" y="213.02" width="13.79" height="13.79"/>
            <rect class="cls-3" x="96.13" y="326.15" width="13.79" height="13.79"/>
            <rect class="cls-3" x="124.22" y="326.15" width="13.79" height="13.79"/>
            <rect class="cls-4" x="151.69" y="326.15" width="13.79" height="13.79"/>
            <rect class="cls-2" x="96.13" y="297.18" width="13.79" height="13.79"/>
            <rect class="cls-4" x="124.22" y="297.18" width="13.79" height="13.79"/>
            <rect class="cls-4" x="151.69" y="297.18" width="13.79" height="13.79"/>
            <rect class="cls-3" x="96.13" y="269.77" width="13.79" height="13.79"/>
            <rect class="cls-3" x="124.22" y="269.77" width="13.79" height="13.79"/>
            <rect class="cls-4" x="151.69" y="269.77" width="13.79" height="13.79"/>
            <rect class="cls-2" x="96.13" y="185.61" width="13.79" height="13.79"/>
            <rect class="cls-2" x="124.22" y="185.61" width="13.79" height="13.79"/>
            <rect class="cls-3" x="151.69" y="185.61" width="13.79" height="13.79"/>
            <rect class="cls-3" x="96.13" y="158.19" width="13.79" height="13.79"/>
            <rect class="cls-3" x="124.22" y="158.19" width="13.79" height="13.79"/>
            <rect class="cls-2" x="151.69" y="158.19" width="13.79" height="13.79"/>
            <rect class="cls-4" x="96.13" y="130.78" width="13.79" height="13.79"/>
            <rect class="cls-2" x="124.22" y="130.78" width="13.79" height="13.79"/>
            <rect class="cls-3" x="151.69" y="130.78" width="13.79" height="13.79"/>
          </g>
          <g>
            <rect class="cls-2" x="267.41" y="368.09" width="19.71" height="40.22"/>
            <rect class="cls-2" x="289.34" y="368.09" width="19.71" height="40.22"/>
          </g>
          <g class="cls-5">
            <rect class="cls-2" x="109.99" y="354.87" width="19.71" height="40.22"/>
            <rect class="cls-2" x="131.92" y="354.87" width="19.71" height="40.22"/>
          </g>
          <g>
            <rect class="cls-3" x="364.62" y="240.43" width="13.79" height="13.79"/>
            <rect class="cls-4" x="392.71" y="240.43" width="13.79" height="13.79"/>
            <rect class="cls-4" x="420.18" y="240.43" width="13.79" height="13.79"/>
            <rect class="cls-3" x="364.62" y="213.02" width="13.79" height="13.79"/>
            <rect class="cls-3" x="392.71" y="213.02" width="13.79" height="13.79"/>
            <rect class="cls-4" x="420.18" y="213.02" width="13.79" height="13.79"/>
            <rect class="cls-3" x="364.62" y="326.15" width="13.79" height="13.79"/>
            <rect class="cls-3" x="392.71" y="326.15" width="13.79" height="13.79"/>
            <rect class="cls-4" x="420.18" y="326.15" width="13.79" height="13.79"/>
            <rect class="cls-3" x="364.62" y="297.18" width="13.79" height="13.79"/>
            <rect class="cls-4" x="392.71" y="297.18" width="13.79" height="13.79"/>
            <rect class="cls-4" x="420.18" y="297.18" width="13.79" height="13.79"/>
            <rect class="cls-3" x="364.62" y="269.77" width="13.79" height="13.79"/>
            <rect class="cls-3" x="392.71" y="269.77" width="13.79" height="13.79"/>
            <rect class="cls-4" x="420.18" y="269.77" width="13.79" height="13.79"/>
            <rect class="cls-3" x="364.62" y="185.61" width="13.79" height="13.79"/>
            <rect class="cls-2" x="392.71" y="185.61" width="13.79" height="13.79"/>
            <rect class="cls-3" x="420.18" y="185.61" width="13.79" height="13.79"/>
            <rect class="cls-3" x="364.62" y="158.19" width="13.79" height="13.79"/>
            <rect class="cls-3" x="392.71" y="158.19" width="13.79" height="13.79"/>
            <rect class="cls-2" x="420.18" y="158.19" width="13.79" height="13.79"/>
            <rect class="cls-3" x="364.62" y="130.78" width="13.79" height="13.79"/>
            <rect class="cls-2" x="392.71" y="130.78" width="13.79" height="13.79"/>
            <rect class="cls-3" x="420.18" y="130.78" width="13.79" height="13.79"/>
          </g>
          <g>
            <rect class="cls-2" x="223.94" y="240.43" width="13.79" height="13.79"/>
            <rect class="cls-4" x="252.03" y="240.43" width="13.79" height="13.79"/>
            <rect class="cls-4" x="279.5" y="240.43" width="13.79" height="13.79"/>
            <rect class="cls-3" x="223.94" y="213.02" width="13.79" height="13.79"/>
            <rect class="cls-3" x="252.03" y="213.02" width="13.79" height="13.79"/>
            <rect class="cls-4" x="279.5" y="213.02" width="13.79" height="13.79"/>
            <rect class="cls-3" x="223.94" y="326.15" width="13.79" height="13.79"/>
            <rect class="cls-3" x="252.03" y="326.15" width="13.79" height="13.79"/>
            <rect class="cls-4" x="279.5" y="326.15" width="13.79" height="13.79"/>
            <rect class="cls-2" x="223.94" y="297.18" width="13.79" height="13.79"/>
            <rect class="cls-4" x="252.03" y="297.18" width="13.79" height="13.79"/>
            <rect class="cls-4" x="279.5" y="297.18" width="13.79" height="13.79"/>
            <rect class="cls-3" x="223.94" y="269.77" width="13.79" height="13.79"/>
            <rect class="cls-3" x="252.03" y="269.77" width="13.79" height="13.79"/>
            <rect class="cls-4" x="279.5" y="269.77" width="13.79" height="13.79"/>
            <rect class="cls-2" x="223.94" y="185.61" width="13.79" height="13.79"/>
            <rect class="cls-2" x="252.03" y="185.61" width="13.79" height="13.79"/>
            <rect class="cls-3" x="279.5" y="185.61" width="13.79" height="13.79"/>
            <rect class="cls-3" x="223.94" y="158.19" width="13.79" height="13.79"/>
            <rect class="cls-3" x="252.03" y="158.19" width="13.79" height="13.79"/>
            <rect class="cls-2" x="279.5" y="158.19" width="13.79" height="13.79"/>
            <rect class="cls-4" x="223.94" y="130.78" width="13.79" height="13.79"/>
            <rect class="cls-2" x="252.03" y="130.78" width="13.79" height="13.79"/>
            <rect class="cls-3" x="279.5" y="130.78" width="13.79" height="13.79"/>
          </g>
          <g>
            <rect class="cls-4" x="307.59" y="240.43" width="13.79" height="13.79"/>
            <rect class="cls-4" x="335.06" y="240.43" width="13.79" height="13.79"/>
            <rect class="cls-3" x="307.59" y="213.02" width="13.79" height="13.79"/>
            <rect class="cls-4" x="335.06" y="213.02" width="13.79" height="13.79"/>
            <rect class="cls-3" x="307.59" y="326.15" width="13.79" height="13.79"/>
            <rect class="cls-4" x="335.06" y="326.15" width="13.79" height="13.79"/>
            <rect class="cls-4" x="307.59" y="297.18" width="13.79" height="13.79"/>
            <rect class="cls-4" x="335.06" y="297.18" width="13.79" height="13.79"/>
            <rect class="cls-3" x="307.59" y="269.77" width="13.79" height="13.79"/>
            <rect class="cls-4" x="335.06" y="269.77" width="13.79" height="13.79"/>
            <rect class="cls-2" x="307.59" y="185.61" width="13.79" height="13.79"/>
            <rect class="cls-3" x="335.06" y="185.61" width="13.79" height="13.79"/>
            <rect class="cls-3" x="307.59" y="158.19" width="13.79" height="13.79"/>
            <rect class="cls-2" x="335.06" y="158.19" width="13.79" height="13.79"/>
            <rect class="cls-2" x="307.59" y="130.78" width="13.79" height="13.79"/>
            <rect class="cls-3" x="335.06" y="130.78" width="13.79" height="13.79"/>
          </g>
          <g class="cls-5">
            <rect class="cls-2" x="378.48" y="354.87" width="19.71" height="40.22"/>
            <rect class="cls-2" x="400.41" y="354.87" width="19.71" height="40.22"/>
          </g>
          <rect class="cls-9" x="50.81" y="103.25" width="403.43" height="6.55"/>
        </g>
        <g>
          <path class="cls-9" d="M57.66,313.69s13.56,4.63,36.12,0c-3.48-2.31-18.06-13.6-33.78-9.56,0,0,13.02-9.11,21.66-22.01-2.36,.22-17.77,5.17-28.44,15.53,1-7.92-4.27-21.28-4.27-21.28,0,0-5.28,13.35-4.27,21.28-10.67-10.36-26.07-15.31-28.44-15.53,8.64,12.9,21.66,22.01,21.66,22.01-15.72-4.04-30.3,7.25-33.78,9.56,22.56,4.63,36.12,0,36.12,0-19.76,6.59-20.49,27.26-21.03,31.45,12.03-4.19,26.77-26.35,26.77-26.35v76.29h5.95v-76.29s14.74,22.16,26.77,26.35c-.55-4.19-1.27-24.86-21.03-31.45Z"/>
          <path class="cls-9" d="M94.88,332.27s10.47,3.57,27.88,0c-2.68-1.79-13.94-10.5-26.07-7.38,0,0,10.05-7.03,16.72-16.99-1.83,.17-13.72,3.99-21.95,11.99,.78-6.12-3.3-16.42-3.3-16.42,0,0-4.07,10.31-3.3,16.42-8.23-8-20.12-11.82-21.95-11.99,6.67,9.96,16.72,16.99,16.72,16.99-12.13-3.12-23.39,5.59-26.07,7.38,17.41,3.57,27.88,0,27.88,0-15.25,5.08-15.81,21.04-16.23,24.27,9.28-3.23,20.66-20.33,20.66-20.33v58.88h4.59v-58.88s11.38,17.1,20.66,20.33c-.42-3.23-.98-19.19-16.23-24.27Z"/>
        </g>
      </g>
    </g>
  </g>
</svg>