<?xml version="1.0" encoding="UTF-8"?>
<svg id="Capa_2" data-name="Capa 2" xmlns="http://www.w3.org/2000/svg" xmlns:xlink="http://www.w3.org/1999/xlink" viewBox="0 0 491.3 480.3">
  <defs>
    <style>
      .cls-1 {
        fill: url(#linear-gradient-2);
      }

      .cls-2 {
        fill: #fff;
      }

      .cls-3 {
        opacity: .6;
      }

      .cls-4 {
        fill: url(#linear-gradient-6);
      }

      .cls-5 {
        fill: #a486f7;
        opacity: .5;
      }

      .cls-6 {
        fill: #383e8c;
      }

      .cls-7 {
        fill: url(#linear-gradient-5);
      }

      .cls-8 {
        fill: url(#linear-gradient-7);
      }

      .cls-9 {
        fill: url(#linear-gradient-3);
      }

      .cls-10 {
        fill: url(#linear-gradient);
      }

      .cls-11 {
        fill: url(#linear-gradient-4);
      }
    </style>
    <linearGradient id="linear-gradient" x1="5.5" y1="240.15" x2="485.8" y2="240.15" gradientUnits="userSpaceOnUse">
      <stop offset="0" stop-color="#eadefe"/>
      <stop offset="1" stop-color="#f9e2ff"/>
    </linearGradient>
    <linearGradient id="linear-gradient-2" x1="275.11" y1="185.7" x2="129.43" y2="463.74" gradientTransform="translate(-123)" gradientUnits="userSpaceOnUse">
      <stop offset="0" stop-color="#4300fa"/>
      <stop offset="1" stop-color="#525de6"/>
    </linearGradient>
    <linearGradient id="linear-gradient-3" x1="186.06" y1="322.11" x2="602.47" y2="322.11" gradientTransform="translate(-123)" gradientUnits="userSpaceOnUse">
      <stop offset="0" stop-color="#7c74ff"/>
      <stop offset="1" stop-color="#a393fe"/>
    </linearGradient>
    <linearGradient id="linear-gradient-4" x1="180.92" y1="419.85" x2="469.44" y2="210.37" gradientTransform="translate(-123)" gradientUnits="userSpaceOnUse">
      <stop offset="0" stop-color="#b17dfe"/>
      <stop offset="1" stop-color="#f38aff"/>
    </linearGradient>
    <linearGradient id="linear-gradient-5" x1="256.52" y1="175.96" x2="110.83" y2="454" xlink:href="#linear-gradient-2"/>
    <linearGradient id="linear-gradient-6" x1="243.32" y1="174.18" x2="546.07" y2="174.18" xlink:href="#linear-gradient-3"/>
    <linearGradient id="linear-gradient-7" x1="119.63" y1="335.43" x2="408.14" y2="125.94" xlink:href="#linear-gradient-4"/>
  </defs>
  <g id="Layer_2" data-name="Layer 2">
    <g>
      <circle class="cls-10" cx="245.65" cy="240.15" r="240.15"/>
      <g>
        <path class="cls-5" d="M1.89,405.41H489.41c2.38,0,2.57,3.18,.21,3.41-36.1,3.54-111.42,9.58-247.94,9.58s-207.2-6.04-240.02-9.58c-2.35-.25-2.14-3.41,.23-3.41Z"/>
        <g>
          <path class="cls-6" d="M363.73,92.25h0c-1.31,0-2.36,1.06-2.36,2.36v17.32h4.73v-17.32c0-1.31-1.06-2.36-2.36-2.36Z"/>
          <polygon class="cls-1" points="122.04 405.41 11.83 405.41 11.83 291.1 63.06 238.8 122.04 291.1 122.04 405.41"/>
          <polygon class="cls-9" points="479.47 405.41 122.04 405.41 122.04 291.1 63.06 238.8 423.07 238.8 479.47 291.1 479.47 405.41"/>
          <polygon class="cls-11" points="122.04 291.1 63.06 238.8 423.07 238.8 479.47 291.1 122.04 291.1"/>
          <path class="cls-6" d="M65.65,346.26h0c-14.5,0-26.25,11.75-26.25,26.25v32.9h52.49v-32.9c0-14.49-11.75-26.25-26.25-26.25Z"/>
          <polygon class="cls-5" points="63.06 238.8 205.67 256.97 442.67 256.97 423.07 238.8 63.06 238.8"/>
          <polygon class="cls-7" points="178.44 238.8 63.06 238.8 63.06 161.86 120.32 109.56 178.44 161.86 178.44 238.8"/>
          <polygon class="cls-4" points="423.07 238.8 178.44 238.8 178.44 161.86 120.32 109.56 366.67 109.56 423.07 161.86 423.07 238.8"/>
          <polygon class="cls-8" points="178.44 161.86 120.32 109.56 366.67 109.56 423.07 161.86 178.44 161.86"/>
          <g class="cls-3">
            <rect class="cls-2" x="207.42" y="188.08" width="25.61" height="24.48"/>
          </g>
          <rect class="cls-6" x="107.51" y="188.08" width="25.61" height="24.48"/>
          <g class="cls-3">
            <rect class="cls-2" x="262.12" y="188.08" width="25.61" height="24.48"/>
          </g>
          <g class="cls-3">
            <rect class="cls-2" x="316.83" y="188.08" width="25.61" height="24.48"/>
          </g>
          <g class="cls-3">
            <rect class="cls-2" x="371.54" y="188.08" width="25.61" height="24.48"/>
          </g>
          <g class="cls-3">
            <rect class="cls-2" x="260.87" y="346.26" width="25.61" height="24.48"/>
          </g>
          <g class="cls-3">
            <rect class="cls-2" x="315.57" y="346.26" width="25.61" height="24.48"/>
          </g>
          <g class="cls-3">
            <rect class="cls-2" x="206.16" y="346.26" width="25.61" height="24.48"/>
          </g>
          <g class="cls-3">
            <rect class="cls-2" x="151.45" y="346.26" width="25.61" height="24.48"/>
          </g>
          <g class="cls-3">
            <rect class="cls-2" x="370.28" y="346.26" width="25.61" height="24.48"/>
          </g>
          <g class="cls-3">
            <rect class="cls-2" x="424.99" y="346.26" width="25.61" height="24.48"/>
          </g>
          <circle class="cls-6" cx="65.65" cy="306.57" r="15.47" transform="translate(-68.24 23.07) rotate(-13.19)"/>
          <path class="cls-6" d="M120.32,92.25h0c1.3,0,2.36,1.06,2.36,2.36v17.32h-4.73v-17.32c0-1.3,1.06-2.36,2.36-2.36Z"/>
        </g>
      </g>
    </g>
  </g>
</svg>