<?xml version="1.0" encoding="UTF-8"?>
<svg id="Capa_2" data-name="Capa 2" xmlns="http://www.w3.org/2000/svg" xmlns:xlink="http://www.w3.org/1999/xlink" viewBox="0 0 489.49 480.3">
  <defs>
    <style>
      .cls-1 {
        fill: url(#linear-gradient-2);
      }

      .cls-2 {
        fill: #fff;
      }

      .cls-3 {
        opacity: .6;
      }

      .cls-4 {
        fill: #a486f7;
        opacity: .5;
      }

      .cls-5 {
        fill: #383e8c;
      }

      .cls-6 {
        fill: #bcaaf9;
      }

      .cls-7 {
        fill: url(#linear-gradient-3);
      }

      .cls-8 {
        fill: url(#linear-gradient);
      }

      .cls-9 {
        fill: url(#linear-gradient-4);
      }
    </style>
    <linearGradient id="linear-gradient" x1="4.6" y1="240.15" x2="484.9" y2="240.15" gradientUnits="userSpaceOnUse">
      <stop offset="0" stop-color="#eadefe"/>
      <stop offset="1" stop-color="#f9e2ff"/>
    </linearGradient>
    <linearGradient id="linear-gradient-2" x1="154.13" y1="200.41" x2="93.55" y2="391.79" gradientUnits="userSpaceOnUse">
      <stop offset="0" stop-color="#4300fa"/>
      <stop offset="1" stop-color="#525de6"/>
    </linearGradient>
    <linearGradient id="linear-gradient-3" x1="114.27" y1="291.92" x2="336.91" y2="291.92" gradientUnits="userSpaceOnUse">
      <stop offset="0" stop-color="#7c74ff"/>
      <stop offset="1" stop-color="#a393fe"/>
    </linearGradient>
    <linearGradient id="linear-gradient-4" x1="178.85" y1="252.57" x2="272.06" y2="181.04" gradientUnits="userSpaceOnUse">
      <stop offset="0" stop-color="#b17dfe"/>
      <stop offset="1" stop-color="#f38aff"/>
    </linearGradient>
  </defs>
  <g id="Layer_2" data-name="Layer 2">
    <g>
      <circle class="cls-8" cx="244.75" cy="240.15" r="240.15"/>
      <g>
        <path class="cls-6" d="M460.76,140.74c-.89,0-1.77,.05-2.63,.13-2.85-4.09-6.65-7.46-11.09-9.8-.93-5.71-5.86-10.07-11.83-10.07-1.1,0-2.16,.16-3.17,.44-2.83-14.23-15.38-24.96-30.44-24.96-3.97,0-7.76,.75-11.25,2.11-2.87-10.35-12.34-17.96-23.61-17.96-1.87,0-3.68,.23-5.43,.62-6.76-12.16-19.74-20.39-34.64-20.39-20.83,0-37.9,16.09-39.48,36.51-14.57,.88-26.54,11.39-29.62,25.26-4.69,.8-8.92,2.93-12.3,5.99-2.61-.71-5.34-1.1-8.18-1.1-17.15,0-31.04,13.9-31.04,31.04s13.9,31.04,31.04,31.04c3.69,0,7.22-.65,10.5-1.82,.33,13.26,11.15,23.91,24.49,23.91,6.1,0,11.66-2.23,15.95-5.91l48.87,45.32v150.43h72.94c-37.4,0-42.24-20.64-42.24-20.64v-111.77c0-17.77,21.33-45.47,36.64-63.08,2.67,1,5.55,1.56,8.57,1.56,11.37,0,20.91-7.75,23.68-18.25,1.03-.13,2.04-.31,3.04-.54,5.25,5.76,12.82,9.37,21.22,9.37,15.87,0,28.73-12.86,28.73-28.73s-12.86-28.73-28.73-28.73Zm-171.43,63.84c.52-.52,1.03-1.06,1.51-1.62,6.06,3.76,13.2,5.94,20.86,5.94,2.65,0,5.23-.27,7.74-.76l24.41,39-54.51-42.55Zm64.63,40.35l-26.76-39.2c3.83-1.64,7.35-3.85,10.45-6.55,7.11,10.57,19.19,17.52,32.88,17.52,3.69,0,7.26-.51,10.65-1.45-17.3,16.59-27.23,29.69-27.23,29.69Z"/>
        <g>
          <g>
            <polygon class="cls-1" points="188.48 401.54 40.06 401.54 40.06 251.11 114.27 182.29 188.48 251.11 188.48 401.54"/>
            <polygon class="cls-7" points="336.91 401.54 188.48 401.54 188.48 251.11 114.27 182.29 262.7 182.29 336.91 251.11 336.91 401.54"/>
            <polygon class="cls-9" points="188.48 251.11 114.27 182.29 262.7 182.29 336.91 251.11 188.48 251.11"/>
            <path class="cls-5" d="M114.27,298.27h0c-14.92,0-27.01,12.09-27.01,27.01v76.27h54.01v-76.27c0-14.92-12.09-27.01-27.01-27.01Z"/>
            <g class="cls-3">
              <rect class="cls-2" x="243.79" y="298.27" width="44.72" height="42.75"/>
            </g>
          </g>
          <path class="cls-4" d="M1.85,401.54H479.35c2.33,0,2.52,4.38,.2,4.7-35.36,4.89-109.12,13.2-242.84,13.2s-202.94-8.32-235.08-13.21c-2.3-.35-2.1-4.7,.22-4.7Z"/>
        </g>
      </g>
      <path class="cls-2" d="M426.82,358.34c0-1.65-.66-3.22-1.84-4.38l-2.82-3.57c-1.12-1.1-2.9-1.1-4.02,0l-2.82,3.57c-1.17,1.15-1.84,2.73-1.84,4.38v8.54h-11.68v-8.54c0-1.65-.66-3.22-1.84-4.38l-2.82-3.57c-1.12-1.1-2.9-1.1-4.02,0l-2.82,3.57c-1.17,1.15-1.84,2.73-1.84,4.38v8.54h-11.62v-8.54c0-1.65-.66-3.22-1.84-4.38l-2.82-3.57c-1.12-1.1-2.9-1.1-4.02,0l-2.82,3.57c-1.17,1.15-1.84,2.73-1.84,4.38v8.54h-11.68v-8.54c0-1.65-.66-3.22-1.84-4.38l-2.82-3.57c-1.12-1.1-2.9-1.1-4.02,0l-2.82,3.57c-1.17,1.15-1.84,2.73-1.84,4.38v8.54h-11.68v-8.54c0-1.65-.66-3.22-1.84-4.38l-2.82-3.57c-1.12-1.1-2.9-1.1-4.02,0l-2.82,3.57c-1.17,1.15-1.84,2.73-1.84,4.38v8.54h-11.68v-8.54c0-1.65-.66-3.22-1.84-4.38l-2.82-3.57c-1.12-1.1-2.9-1.1-4.02,0l-2.82,3.57c-1.17,1.15-1.84,2.73-1.84,4.38v43.2h13.33v-25.99h11.68v25.99h13.33v-25.99h11.68v25.99h13.33v-25.99h11.68v25.99h13.33v-25.99h11.62v25.99h13.33v-25.99h11.68v25.99h13.33v-43.2Z"/>
    </g>
  </g>
</svg>